<?xml version="1.0" standalone="no"?>
<!DOCTYPE svg PUBLIC "-//W3C//DTD SVG 20010904//EN"
 "http://www.w3.org/TR/2001/REC-SVG-20010904/DTD/svg10.dtd">
<svg version="1.0" xmlns="http://www.w3.org/2000/svg"
 width="3040.000000pt" height="3040.000000pt" viewBox="0 0 3040.000000 3040.000000"
 preserveAspectRatio="xMidYMid meet">
<metadata>
Created by potrace 1.14, written by Peter Selinger 2001-2017
</metadata>
<g transform="translate(0.000000,3040.000000) scale(0.100000,-0.100000)"
fill="#000000" stroke="none">
<path d="M0 15198 l0 -2563 270 270 270 270 0 2037 0 2037 195 3 195 3 0 -602
c0 -332 3 -603 8 -603 4 0 123 116 265 258 l257 257 0 598 0 597 -730 0 -730
0 0 -2562z"/>
<path d="M2008 16674 l-1078 -1084 0 -385 c0 -212 3 -385 8 -385 4 0 320 314
702 698 382 383 1041 1045 1465 1470 l770 772 -395 -1 -395 -1 -1077 -1084z"/>
<path d="M3076 16505 c-686 -690 -1246 -1260 -1244 -1265 2 -6 581 -593 1288
-1305 l1285 -1293 390 -1 390 -1 -535 538 c-294 295 -877 880 -1294 1299
l-760 762 562 568 c308 312 784 791 1057 1063 273 272 582 584 687 693 l190
197 -384 0 -384 0 -1248 -1255z"/>
<path d="M24315 16663 c-429 -51 -708 -176 -966 -433 -205 -205 -333 -446
-389 -736 -54 -282 -26 -610 74 -862 183 -462 596 -792 1111 -888 139 -26 487
-26 625 -1 179 34 386 113 524 202 115 73 286 226 286 255 0 10 -222 229 -303
300 l-38 33 -67 -65 c-118 -114 -266 -197 -437 -244 -80 -22 -333 -30 -434
-14 -220 35 -424 140 -568 293 -310 328 -346 900 -82 1284 120 173 323 310
549 370 137 36 357 43 490 15 183 -38 341 -118 472 -241 l78 -73 96 88 c52 49
131 123 176 165 l81 75 -70 71 c-263 267 -663 418 -1087 412 -50 -1 -104 -4
-121 -6z"/>
<path d="M28730 16664 c-265 -31 -425 -76 -613 -170 -256 -129 -499 -372 -627
-624 -81 -161 -136 -367 -149 -563 -44 -623 262 -1165 804 -1427 132 -64 232
-98 387 -132 90 -20 132 -22 338 -22 207 0 247 2 340 22 316 69 570 202 774
406 201 200 331 444 393 736 26 123 26 489 -1 610 -62 288 -175 505 -365 702
-232 242 -510 385 -861 444 -85 15 -354 26 -420 18z m405 -504 c374 -102 627
-371 705 -750 28 -135 24 -360 -8 -482 -94 -354 -342 -604 -692 -700 -76 -20
-106 -23 -275 -22 -177 0 -196 2 -280 28 -352 106 -583 345 -675 698 -27 106
-37 292 -21 412 57 427 362 752 780 831 114 22 361 14 466 -15z"/>
<path d="M7060 15195 l0 -1435 268 2 267 3 3 367 2 368 217 222 c119 123 219
224 222 225 3 2 231 -265 505 -592 l500 -595 309 0 c273 0 308 2 303 15 -3 9
-285 363 -626 788 -341 424 -621 776 -621 780 -1 5 264 292 588 638 323 347
590 634 591 639 2 6 -110 10 -295 10 l-298 0 -695 -726 -695 -726 -5 723 -5
724 -267 3 -268 2 0 -1435z"/>
<path d="M11560 15195 l0 -1435 1070 0 1070 0 0 230 0 230 -800 -2 -800 -3 0
388 0 387 685 0 685 0 0 225 0 225 -685 0 -685 0 0 365 0 365 773 2 772 3 0
225 0 225 -1042 3 -1043 2 0 -1435z"/>
<path d="M15807 16623 c-4 -3 -7 -649 -7 -1435 l0 -1428 270 0 270 0 0 415 0
415 368 2 c202 2 372 0 378 -4 5 -4 138 -192 294 -418 l284 -410 288 0 c158 0
288 2 288 4 0 2 -146 213 -324 469 l-323 465 92 46 c102 52 230 150 290 222
154 186 225 418 212 694 -10 203 -54 352 -149 497 -176 270 -481 426 -903 462
-131 12 -1317 15 -1328 4z m1289 -463 c362 -45 554 -237 554 -555 0 -276 -151
-464 -431 -536 -78 -21 -113 -23 -481 -26 l-398 -5 0 566 0 566 338 0 c186 0
374 -5 418 -10z"/>
<path d="M20304 16603 c-4 -15 -4 -246 -1 -513 4 -267 7 -900 7 -1407 l0 -923
265 0 265 0 0 1435 0 1435 -265 0 -265 0 -6 -27z"/>
<path d="M1258 14676 l-328 -333 0 -381 c0 -225 4 -382 9 -382 5 0 154 147
331 328 l322 327 792 -797 793 -798 388 0 387 0 -1177 1185 c-648 652 -1181
1185 -1184 1184 -3 -1 -153 -151 -333 -333z"/>
</g>
</svg>
