<svg width="30" height="30" fill="none" xmlns="http://www.w3.org/2000/svg"><g clip-path="url(#a)"><mask id="b" style="mask-type:luminance" maskUnits="userSpaceOnUse" x="0" y="0" width="30" height="30"><path d="M0 0h30v30H0V0Z" fill="#fff"/></mask><g mask="url(#b)"><path d="M22.031 9.14a1.758 1.758 0 1 1-3.515 0 1.758 1.758 0 0 1 3.515 0ZM22.031 20.86a1.758 1.758 0 1 0-3.515 0 1.758 1.758 0 0 0 3.515 0ZM24.375 15a1.758 1.758 0 1 1-3.516 0 1.758 1.758 0 0 1 3.516 0ZM15 9.14h3.516M15 20.86h3.516M15 15h5.86M10.313.879A4.687 4.687 0 0 0 5.79 6.803 4.687 4.687 0 0 0 2.468 15a4.687 4.687 0 0 0 3.323 8.197A4.688 4.688 0 1 0 15 24.433V5.567A4.688 4.688 0 0 0 10.312.88Z" stroke="#74B9F9" stroke-width="2" stroke-miterlimit="10" stroke-linecap="round" stroke-linejoin="round"/><path d="M19.688.879a4.688 4.688 0 0 1 4.521 5.924A4.688 4.688 0 0 1 27.532 15a4.687 4.687 0 0 1-3.323 8.197A4.688 4.688 0 1 1 15 24.433V5.567A4.688 4.688 0 0 1 19.688.88ZM2.25 8.168a4.687 4.687 0 0 1 6.63 0M2.25 21.83a4.687 4.687 0 0 0 6.63 0" stroke="#74B9F9" stroke-width="2" stroke-miterlimit="10" stroke-linecap="round" stroke-linejoin="round"/></g></g><defs><clipPath id="a"><path fill="#fff" d="M0 0h30v30H0z"/></clipPath></defs></svg>