<svg width="34" height="34" fill="none" xmlns="http://www.w3.org/2000/svg"><mask id="a" style="mask-type:luminance" maskUnits="userSpaceOnUse" x="0" y="0" width="34" height="34"><path d="M33 33V1H1v32h32Z" fill="#fff" stroke="#fff" stroke-width="2"/></mask><g mask="url(#a)"><path d="M25.184 16.408a2.134 2.134 0 0 0-3.018-3.018l-3.018 3.018a2.134 2.134 0 0 0 3.018 3.018l3.018-3.018Z" stroke="#74B9F9" stroke-width="2" stroke-miterlimit="10" stroke-linecap="round" stroke-linejoin="round"/><path d="M27.45 20.178a2.134 2.134 0 0 0-3.019-3.018l-2.263 2.264a2.134 2.134 0 0 0 3.018 3.018l2.263-2.264ZM29.714 23.952a2.132 2.132 0 0 0-1.51-3.642c-.565 0-1.108.224-1.508.624-.486.486-1.024 1.023-1.509 1.51a2.133 2.133 0 1 0 3.018 3.017l1.509-1.509Z" stroke="#74B9F9" stroke-width="2" stroke-miterlimit="10" stroke-linecap="round" stroke-linejoin="round"/><path d="m22.168 13.388 5.281-5.28a2.135 2.135 0 0 0-1.51-3.643c-.565 0-1.108.225-1.508.625L13.115 16.406l-.992-4.297a3.134 3.134 0 0 0-5.27-1.511h-.001l.013 12.804-3.2 3.2 6.4 6.402h9.269a3.2 3.2 0 0 0 2.262-.938l8.116-8.116" stroke="#74B9F9" stroke-width="2" stroke-miterlimit="10" stroke-linecap="round" stroke-linejoin="round"/><path d="m13.113 16.405.755.754a5.335 5.335 0 0 1 0 7.544M13.266 5.266V.998M9 5.266 7.934 4.199M17.535 5.266l1.067-1.067" stroke="#74B9F9" stroke-width="2" stroke-miterlimit="10" stroke-linecap="round" stroke-linejoin="round"/></g></svg>