<svg width="34" height="34" fill="none" xmlns="http://www.w3.org/2000/svg"><g stroke="#74B9F9" stroke-width="2" stroke-miterlimit="10" stroke-linecap="round" stroke-linejoin="round"><path d="M16.998 21.95a3.256 3.256 0 1 0 0-6.513 3.256 3.256 0 0 0 0 6.513Z"/><path d="M33 18.694s-7.164 9.464-16 9.464c-8.837 0-16-9.464-16-9.464S8.163 9.23 17 9.23c8.836 0 16 9.464 16 9.464Z"/><path d="M16.999 28.158a9.464 9.464 0 1 0 0-18.928 9.464 9.464 0 0 0 0 18.928ZM9.605 11.299l-1.69-2.358M24.398 11.299l1.691-2.358M17 9.178V5.844"/></g></svg>