<svg width="30" height="30" fill="none" xmlns="http://www.w3.org/2000/svg"><mask id="a" style="mask-type:luminance" maskUnits="userSpaceOnUse" x="0" y="0" width="30" height="30"><path d="M29 29V1H1v28h28Z" fill="#fff" stroke="#fff" stroke-width="2"/></mask><g mask="url(#a)"><path d="m23.262 18.336 3.833-3.625a6.892 6.892 0 0 0-9.747-9.746l-5.428 5.274a2.276 2.276 0 0 0-.027 3.244v0c.889.89 2.33.89 3.219 0l.972-.971a.957.957 0 0 1 1.353 0l6.034 6.033a1.87 1.87 0 0 1-2.646 2.645" stroke="#74B9F9" stroke-width="2" stroke-miterlimit="10" stroke-linecap="round" stroke-linejoin="round"/><path d="m16.25 22.298 1.637 1.637a2.009 2.009 0 1 0 2.841-2.84l-1.646-1.647M15.365 6.866l-2.103-2.102A7.25 7.25 0 0 0 3.01 15.016l.773.773M8.743 25.39l.026.027a2.044 2.044 0 0 0 2.892 0l1.046-1.047a2.045 2.045 0 0 0 0-2.891l-.026-.026a2.045 2.045 0 0 0-2.891 0l-1.047 1.046a2.045 2.045 0 0 0 0 2.892Z" stroke="#74B9F9" stroke-width="2" stroke-miterlimit="10" stroke-linecap="round" stroke-linejoin="round"/><path d="m5.782 22.516.026.026a2.044 2.044 0 0 0 2.892 0l2.638-2.638a2.045 2.045 0 0 0 0-2.892l-.026-.026a2.045 2.045 0 0 0-2.891 0l-2.639 2.638a2.045 2.045 0 0 0 0 2.892Z" stroke="#74B9F9" stroke-width="2" stroke-miterlimit="10" stroke-linecap="round" stroke-linejoin="round"/><path d="m2.864 19.598.026.026a2.045 2.045 0 0 0 2.892 0l1.614-1.614a2.045 2.045 0 0 0 0-2.892l-.026-.026a2.045 2.045 0 0 0-2.892 0l-1.614 1.614a2.045 2.045 0 0 0 0 2.892ZM12.676 24.407l2.368 2.368a2.009 2.009 0 1 0 2.84-2.84" stroke="#74B9F9" stroke-width="2" stroke-miterlimit="10" stroke-linecap="round" stroke-linejoin="round"/></g></svg>