<svg width="50" height="50" fill="none" xmlns="http://www.w3.org/2000/svg"><g stroke="#fff" stroke-width="2" stroke-miterlimit="10" clip-path="url(#a)"><path d="M36.768 25c6.499 0 11.767-5.268 11.767-11.768 0-6.499-5.268-11.767-11.767-11.767C30.268 1.465 25 6.733 25 13.232 25 19.732 30.268 25 36.768 25ZM31.541 18.457l-3.096 3.096"/><path d="M36.768 8.738v4.493l-1.963 1.963M36.766 1.465v4.378M36.766 20.621V25M29.378 13.234H25M45.088 21.553l-3.096-3.096M31.541 8.006 28.445 4.91M45.088 4.91l-3.096 3.096M7.426 28.43H5.795a4.33 4.33 0 1 0 0 8.66h1.631M30.867 37.09h1.631a4.33 4.33 0 1 0 0-8.66h-1.63"/><path d="M7.426 22.984v13.698c0 6.482 5.204 11.836 11.686 11.855 6.49.019 11.756-5.236 11.756-11.721V23.782"/><path d="M23.56 37.2a4.413 4.413 0 1 1-8.826 0M12.16 31.05a2.206 2.206 0 1 1 4.413 0M21.723 31.05a2.206 2.206 0 1 1 4.412 0M29.62 22.984H3.52v-1.953a5.86 5.86 0 0 1 5.859-5.86h15.63M48.535 13.234h-4.379"/></g><defs><clipPath id="a"><path fill="#fff" d="M0 0h50v50H0z"/></clipPath></defs></svg>