<svg width="50" height="50" fill="none" xmlns="http://www.w3.org/2000/svg"><g clip-path="url(#a)"><mask id="b" style="mask-type:luminance" maskUnits="userSpaceOnUse" x="0" y="0" width="50" height="50"><path d="M0 0h50v50H0V0Z" fill="#fff"/></mask><g mask="url(#b)"><path d="m1.465 21.38 11.296 5.55 11.052-8.29 11.207 2.802L48.535 7.926M36.816 30.86l-11.718-2.93-11.72 8.789-11.913-5.86v17.676h47.07V19.141L36.816 30.859Z" stroke="#fff" stroke-width="2" stroke-miterlimit="10"/><path d="M42.676 7.422h5.86v5.86M10.45 13.281a2.93 2.93 0 1 0 2.929-2.93 2.93 2.93 0 1 1 2.93-2.93M13.379 0v4.492M13.379 16.21v4.395M13.379 48.535V36.72M25.098 48.535V27.93M36.816 48.535V30.86" stroke="#fff" stroke-width="2" stroke-miterlimit="10"/></g></g><defs><clipPath id="a"><path fill="#fff" d="M0 0h50v50H0z"/></clipPath></defs></svg>