<svg width="80" height="80" fill="none" xmlns="http://www.w3.org/2000/svg"><rect width="80" height="80" rx="6" fill="#2C4FA3"/><mask id="a" style="mask-type:luminance" maskUnits="userSpaceOnUse" x="15" y="15" width="50" height="50"><path d="M64 64V16H16v48h48Z" fill="#fff" stroke="#fff" stroke-width="2"/></mask><g mask="url(#a)"><path d="M54.648 63.535h5.86v-6.054h-5.86v6.054ZM42.93 63.535h5.86V45.762h-5.86v17.773ZM31.21 63.535h5.86V51.621h-5.86v11.914ZM19.492 63.535h5.86V36.973h-5.86v26.562ZM54.648 45.762a2.93 2.93 0 1 0 5.86 0 2.93 2.93 0 0 0-5.86 0ZM42.93 31.113a2.93 2.93 0 1 0 5.86 0 2.93 2.93 0 0 0-5.86 0ZM31.21 36.973a2.93 2.93 0 1 0 5.86 0 2.93 2.93 0 0 0-5.86 0ZM19.492 19.395a2.93 2.93 0 1 0 5.86 0 2.93 2.93 0 0 0-5.86 0ZM55.505 43.691 47.93 33.186M43.239 32.426l-6.477 3.238M32.515 34.535l-8.468-12.702" stroke="#fff" stroke-width="2" stroke-miterlimit="10"/></g></svg>