<svg width="30" height="30" fill="none" xmlns="http://www.w3.org/2000/svg"><g clip-path="url(#a)"><rect width="30" height="30" rx="4" fill="#fff"/><path fill-rule="evenodd" clip-rule="evenodd" d="M100 0H0v100h100V0ZM6.898 8.073c0-.648.543-1.175 1.212-1.175h13.97c.668 0 1.21.527 1.21 1.175v14.044c0 .648-.542 1.174-1.21 1.174H8.11c-.669 0-1.212-.526-1.212-1.174V8.073Zm4.982 12.544v-7.38H9.427v7.38h2.453Zm-1.226-8.388c.855 0 1.387-.566 1.387-1.274-.016-.725-.532-1.276-1.371-1.276-.84 0-1.388.551-1.388 1.275 0 .709.532 1.275 1.356 1.275h.016Zm2.584 8.388h2.452v-4.121c0-.22.016-.441.081-.599.177-.44.58-.897 1.259-.897.887 0 1.242.677 1.242 1.669v3.948h2.453v-4.232c0-2.266-1.21-3.321-2.824-3.321-1.301 0-1.884.715-2.21 1.218v-1.045h-2.453c.032.692 0 7.38 0 7.38Z" fill="#069"/></g><defs><clipPath id="a"><rect width="30" height="30" rx="4" fill="#fff"/></clipPath></defs></svg>