<svg width="190" height="32" fill="none" xmlns="http://www.w3.org/2000/svg"><path d="m50.26 17.493-2.818 2.9v4.566h-3.297V7.117h3.297v9.159l8.779-9.159h3.7l-7.456 7.974 7.929 9.872h-3.856l-6.278-7.47ZM85.615 22.187v2.78H72.281V7.116h12.974v2.78h-9.658v4.643h8.573v2.725h-8.573v4.925l10.018-.003ZM110.422 24.966l-3.625-5.23c-.227.022-.456.03-.685.026h-4.018v5.204h-3.297V7.117h7.301c4.667 0 7.568 2.4 7.568 6.353 0 2.704-1.37 4.712-3.777 5.636l4.083 5.868-3.55-.008Zm-4.461-15.05h-3.856v7.117h3.856c2.883 0 4.386-1.326 4.386-3.57 0-2.243-1.507-3.548-4.397-3.548h.011ZM126.938 7.117h3.304v17.857h-3.297l-.007-17.857ZM143.352 16.04c0-5.332 4.057-9.185 9.51-9.185 2.883 0 5.38 1.044 7.027 2.983l-2.13 2.015a6.236 6.236 0 0 0-2.145-1.564 6.207 6.207 0 0 0-2.597-.527c-3.68 0-6.343 2.602-6.343 6.277 0 3.675 2.663 6.274 6.343 6.274a6.147 6.147 0 0 0 4.742-2.117l2.13 2.04c-1.647 1.94-4.133 3.002-7.052 3.002-5.428 0-9.485-3.867-9.485-9.199ZM170.875 16.04c0-5.281 4.058-9.185 9.561-9.185S190 10.733 190 16.04c0 5.306-4.058 9.199-9.564 9.199-5.507 0-9.561-3.918-9.561-9.199Zm15.802 0c0-3.65-2.663-6.278-6.241-6.278-3.579 0-6.228 2.628-6.228 6.277 0 3.65 2.664 6.274 6.238 6.274 3.575 0 6.231-2.628 6.231-6.274ZM19.355 0l-13.5 13.576v4.82L24.148 0h-4.794Zm-13.5 10.695 3.263-3.283V0H0v32l3.368-3.387V3.126h2.486v7.569Z" fill="#212A53"/><path d="m9.955 17.191-4.1 4.126v4.82l4.1-4.125L19.885 32h4.794L9.981 17.217l-.026-.026ZM16.2 15.733 31.843 0H27.05L11.406 15.733 27.581 32h4.794L16.2 15.733Z" fill="#74B9F9"/></svg>