<svg width="770" height="644" fill="none" xmlns="http://www.w3.org/2000/svg"><g clip-path="url(#a)"><g clip-path="url(#b)"><rect x="190" width="580" height="644" rx="6" fill="#F6F8FB"/><path d="m445 332 123-31.5L706 444H535.5l-90.5-5-3-46.5 3-60.5Z" fill="#74B9F9"/><path d="M612 213.5h170.5M359 250V-4.5M556 131H359L186-4.5M571 300l269 269M286 447h432M442 326v318m-156 0V403c0-11.046-8.954-20-20-20h-80.5" stroke="#fff" stroke-width="20"/></g><path d="M79 752.002V335.608c0-63.957 59.212-111.476 121.652-97.628l261.696 58.04C524.788 309.868 584 262.35 584 198.392V-3" stroke="#fff" stroke-width="80"/><path d="M79 752.002V335.608c0-63.957 59.212-111.476 121.652-97.628l261.696 58.04C524.788 309.868 584 262.35 584 198.392V0" stroke="#212A53" stroke-width="40"/><path d="M79 752.002V335.608c0-63.957 59.212-111.476 121.652-97.628l261.696 58.04C524.788 309.868 584 262.35 584 198.392V0" stroke="#fff" stroke-width="2" stroke-dasharray="4 4"/><circle cx="79.058" cy="522.589" r="79.058" fill="#fff" fill-opacity=".1"/><circle cx="79.057" cy="522.588" r="63.967" fill="#fff" fill-opacity=".1"/><circle cx="79.055" cy="522.59" r="48.883" fill="#fff" fill-opacity=".1"/><g filter="url(#c)"><path d="m57.438 610.074-8.83-1.345a1.013 1.013 0 0 1-.841-1.178v-.42a1.01 1.01 0 0 1 1.177-.841l8.41 1.261a1.092 1.092 0 0 1 .841 1.178v.504a1.01 1.01 0 0 1-.757.841Z" fill="url(#d)"/><path d="m111.935 608.301-8.831 1.514a1.021 1.021 0 0 1-.767-.172 1.018 1.018 0 0 1-.411-.669 1.006 1.006 0 0 1 .841-1.177l8.411-1.598a1.176 1.176 0 0 1 1.261.841 1.171 1.171 0 0 1-.504 1.261Z" fill="url(#e)"/><path d="m109.417 486.184 1.598 3.532c4.29 0 7.738-6.728 7.738-10.597v-15.98a7.409 7.409 0 0 0-2.404-5.137 7.404 7.404 0 0 0-5.334-1.928h-1.598a7.403 7.403 0 0 0-7.737 7.065v15.98a7.39 7.39 0 0 0 2.403 5.137 7.414 7.414 0 0 0 5.334 1.928Z" fill="url(#f)"/><path style="mix-blend-mode:multiply" d="M118.921 479.126c0 3.869-3.532 10.597-7.738 10.597l-1.766-3.532a7.482 7.482 0 0 1-5.255-1.893 7.481 7.481 0 0 1-2.482-5.004v-9.083h16.82l.421 8.915Z" fill="url(#g)"/><path style="mix-blend-mode:hard-light" d="M118.832 472.735c0 6.728-1.346 12.195-2.439 12.111-1.093-.084-1.934-5.467-1.766-12.195.168-6.728 1.262-12.195 2.439-12.111 1.177.084 1.934 5.467 1.766 12.195Z" fill="url(#h)"/><path style="mix-blend-mode:multiply" d="M116.727 458.268a7.825 7.825 0 0 0-4.289-2.018v32.212h1.934a10.596 10.596 0 0 0 2.355-2.692v-27.502Z" fill="url(#i)"/><path d="m49.285 486.184-1.514 3.532c-4.29 0-7.822-6.728-7.822-10.597v-15.98a7.484 7.484 0 0 1 7.822-7.065h1.514a7.4 7.4 0 0 1 7.737 7.065v15.98a7.405 7.405 0 0 1-4.878 6.632 7.4 7.4 0 0 1-2.86.433Z" fill="url(#j)"/><path style="mix-blend-mode:multiply" d="M39.95 479.126c0 3.869 3.532 10.597 7.82 10.597l1.515-3.532a7.483 7.483 0 0 0 7.737-6.897v-9.083h-16.82l-.253 8.915Z" fill="url(#k)"/><path style="mix-blend-mode:hard-light" d="M44.33 471.974c0 6.729-.59 12.279-1.767 12.279-1.178 0-2.187-5.382-2.44-12.111-.251-6.728.674-12.279 1.767-12.279s2.27 5.383 2.44 12.111Z" fill="url(#l)"/><path d="m109.417 588.619 1.598 3.532c4.29 0 7.738-6.728 7.738-10.597v-15.895a7.4 7.4 0 0 0-7.738-7.065h-1.598a7.421 7.421 0 0 0-2.859.432 7.396 7.396 0 0 0-4.878 6.633v15.895c.043.973.277 1.927.69 2.808a7.38 7.38 0 0 0 1.713 2.329 7.403 7.403 0 0 0 5.334 1.928Z" fill="url(#m)"/><path style="mix-blend-mode:multiply" d="M118.921 581.563c0 3.869-3.532 10.598-7.738 10.598l-1.766-3.533a7.486 7.486 0 0 1-7.737-6.896v-9.084h16.82l.421 8.915Z" fill="url(#n)"/><path style="mix-blend-mode:hard-light" d="M118.832 575.168c0 6.728-1.346 12.195-2.439 12.195s-1.934-5.551-1.766-12.279c.168-6.729 1.262-12.111 2.439-12.111s1.934 5.551 1.766 12.195Z" fill="url(#o)"/><path style="mix-blend-mode:multiply" d="M116.727 560.702a8.41 8.41 0 0 0-4.289-2.018v32.211h1.934a10.591 10.591 0 0 0 2.355-2.691v-27.502Z" fill="url(#p)"/><path d="m49.285 588.619-1.514 3.532c-4.29 0-7.822-6.728-7.822-10.597v-15.895a7.489 7.489 0 0 1 7.822-7.065h1.514a7.4 7.4 0 0 1 7.737 7.065v15.895a7.396 7.396 0 0 1-2.403 5.138 7.409 7.409 0 0 1-5.334 1.927Z" fill="url(#q)"/><path style="mix-blend-mode:multiply" d="M39.95 581.563c0 3.869 3.532 10.598 7.82 10.598l1.515-3.533a7.486 7.486 0 0 0 7.737-6.896v-9.084h-16.82l-.253 8.915Z" fill="url(#r)"/><path style="mix-blend-mode:hard-light" d="M44.33 574.493c0 6.728-.59 12.195-1.767 12.195-1.178 0-2.187-5.383-2.44-12.111-.251-6.728.674-12.195 1.767-12.279 1.093-.084 2.27 5.467 2.44 12.195Z" fill="url(#s)"/><path d="M110.01 431.267a23.466 23.466 0 0 0-13.205-5.298A32.037 32.037 0 0 0 79.48 422.1a31.71 31.71 0 0 0-17.326 3.869 23.302 23.302 0 0 0-13.204 5.298 36.42 36.42 0 0 0-7.57 23.381v87.216c0 4.626 1.178 57.779 1.43 61.48.505 6.139 26.493 7.821 36.67 7.821 10.176 0 36.249-1.682 36.753-7.821 0-3.701 1.262-56.854 1.262-61.48v-87.216a36.255 36.255 0 0 0-7.485-23.381Z" fill="url(#t)"/><path style="mix-blend-mode:multiply" d="M117.835 541.862V476.85l-2.523-1.514-69.89 130.95a100.357 100.357 0 0 0 33.641 4.878c10.177 0 36.249-1.683 36.754-7.822.757-3.701 2.018-56.854 2.018-61.48Z" fill="url(#u)"/><path d="M44.158 470.133a224.823 224.823 0 0 1 5.635 23.212c.673 6.308 0 28.343 0 28.343l-5.719-3.616.084-47.939Z" fill="url(#v)"/><path d="M114.801 470.133a219.385 219.385 0 0 0-5.383 23.212c-.589 6.308 0 28.343 0 28.343l6.139-3.28-.756-48.275Z" fill="url(#w)"/><path d="M79.474 457.414s-25.232 0-33.642 11.439l5.046 19.764a181.015 181.015 0 0 1 28.511-2.018c9.542-.074 19.075.601 28.512 2.018l4.962-19.764c-7.906-11.691-33.39-11.439-33.39-11.439Z" fill="url(#x)"/><path d="M60.548 427.652a29.447 29.447 0 0 0-9.588 3.196 14.134 14.134 0 0 0-5.046 5.467 63.239 63.239 0 0 1 7.317-4.205 16.048 16.048 0 0 1 6.14-1.682l1.177-2.776Z" fill="url(#y)"/><path d="M98.316 427.652c3.357.505 6.6 1.586 9.588 3.196a13.282 13.282 0 0 1 5.046 5.467 55.913 55.913 0 0 0-7.317-4.205 16.042 16.042 0 0 0-6.14-1.682l-1.177-2.776Z" fill="url(#z)"/><path style="mix-blend-mode:hard-light" d="M45.326 461.199a45.675 45.675 0 0 1-2.439 17.578 42.978 42.978 0 0 1-.757-17.746 44.66 44.66 0 0 1 2.44-17.578 45.082 45.082 0 0 1 .756 17.746Z" fill="url(#A)"/><path style="mix-blend-mode:hard-light" d="M116.566 461.115a44.93 44.93 0 0 1-1.766 17.662 43.981 43.981 0 0 1-1.851-17.662 43.98 43.98 0 0 1 1.851-17.662 44.93 44.93 0 0 1 1.766 17.662Z" fill="url(#B)"/><path style="mix-blend-mode:soft-light" d="M81.156 457.414h-1.682s-25.232 0-33.642 11.438l5.046 19.765a165.998 165.998 0 0 1 22.12-1.851l8.158-29.352Z" fill="url(#C)"/><mask id="D" style="mask-type:luminance" maskUnits="userSpaceOnUse" x="45" y="456" width="68" height="33"><path d="M79.552 456.336s-25.736.42-33.642 12.531l5.046 19.765a187.043 187.043 0 0 1 28.596-2.019c9.513-.059 19.017.616 28.427 2.019l4.962-19.765c-7.906-12.111-33.39-12.531-33.39-12.531Z" fill="#fff"/></mask><g mask="url(#D)"><path style="mix-blend-mode:hard-light" d="M115.797 478.462c-3.533 14.97-8.411 26.745-11.438 26.156-3.028-.589-2.103-13.12 1.429-28.091 3.533-14.97 8.411-26.66 11.439-26.156 3.027.505 2.186 13.12-1.43 28.091Z" fill="url(#E)"/><path style="mix-blend-mode:hard-light" d="M75.77 463.317c-30.614.673-55.593-4.373-55.761-11.186-.169-6.812 24.474-12.952 55.088-13.625 30.613-.672 55.592 4.29 55.76 11.186.169 6.897-24.726 12.952-55.088 13.625Z" fill="url(#F)"/><path style="mix-blend-mode:hard-light" d="M76.44 481.726a23.884 23.884 0 0 1-20.521 27.923 26.16 26.16 0 0 1-30.194-19.428 23.888 23.888 0 0 1 20.521-27.839 26.155 26.155 0 0 1 30.194 19.344Z" fill="url(#G)"/></g><path d="m45.422 464.577.505 4.29s6.98-11.102 34.398-11.102a44.65 44.65 0 0 1 32.632 11.102l.505-4.29a49.79 49.79 0 0 0-32.632-9.503c-27.25 0-35.408 9.503-35.408 9.503Z" fill="#010101"/><path d="M58.277 427.898a21.793 21.793 0 0 0-7.737 3.196 13.212 13.212 0 0 0-4.626 5.467 54.993 54.993 0 0 1 6.728-4.205 12.261 12.261 0 0 1 4.542-1.682l1.093-2.776Z" fill="url(#H)"/><path d="m57.184 430.672.505-1.262a15.49 15.49 0 0 0-5.551 1.766 17.415 17.415 0 0 0-6.224 5.467 54.993 54.993 0 0 1 6.728-4.205 12.275 12.275 0 0 1 4.542-1.766Z" fill="url(#I)"/><path d="M57.696 428.58s-.589.673-1.43.925-1.598 0-1.598 0 .505-.673 1.43-.925c.925-.252 1.514-.252 1.598 0Z" fill="url(#J)"/><path d="M54.156 429.667s0 .589-1.009.841-1.261 0-1.346 0c-.084 0 0-.589 1.094-.841 1.093-.252 1.177-.168 1.261 0Z" fill="url(#K)"/><path style="mix-blend-mode:hard-light" d="M57.775 428.651s-1.262 1.262-3.028 1.935c-1.766.672-3.28.841-3.448.42-.169-.42 1.261-1.262 3.027-1.934 1.767-.673 3.28-.841 3.449-.421Z" fill="url(#L)"/><path d="M45.914 436.567a32.862 32.862 0 0 1 6.813-4.541 14.624 14.624 0 0 1 4.541-1.514c-1.551.229-3.04.773-4.373 1.598a44.301 44.301 0 0 0-6.98 4.457Z" fill="url(#M)"/><path d="M101.008 427.898a21.793 21.793 0 0 1 7.737 3.196 13.214 13.214 0 0 1 4.626 5.467 55.027 55.027 0 0 0-6.728-4.205 12.26 12.26 0 0 0-4.542-1.682l-1.093-2.776Z" fill="url(#N)"/><path d="m101.938 430.672-.504-1.262c1.945.232 3.829.832 5.55 1.766a16.822 16.822 0 0 1 6.14 5.467 55.027 55.027 0 0 0-6.728-4.205 12.279 12.279 0 0 0-4.458-1.766Z" fill="url(#O)"/><path d="M101.434 428.58s.588.673 1.429.925c.841.252 1.598 0 1.682 0 .085 0-.588-.673-1.429-.925-.841-.252-1.598-.252-1.682 0Z" fill="url(#P)"/><path d="M104.965 429.667s.42.589 1.009.841 1.262 0 1.346 0c.084 0-.421-.589-1.094-.841-.672-.252-1.177-.168-1.261 0Z" fill="url(#Q)"/><path style="mix-blend-mode:hard-light" d="M101.008 428.651s1.261 1.262 3.028 1.935c1.766.672 3.28.841 3.448.42.168-.42-1.178-1.262-3.028-1.934-1.85-.673-2.944-.841-3.448-.421Z" fill="url(#R)"/><path d="M113.202 436.567a32.88 32.88 0 0 0-6.813-4.541 14.622 14.622 0 0 0-4.541-1.514 11.51 11.51 0 0 1 4.373 1.598 44.318 44.318 0 0 1 6.981 4.457Z" fill="url(#S)"/><path d="M99.164 425.965a38.441 38.441 0 0 0-19.68-3.868 38.262 38.262 0 0 0-19.68 3.868c-9.588 8.411-14.382 38.604-14.382 38.604s8.915-9.42 33.641-9.42c24.727 0 33.642 9.42 33.642 9.42s-4.037-29.857-13.54-38.604Z" fill="url(#T)"/><path style="mix-blend-mode:soft-light" d="M59.804 425.976c-9.588 8.41-14.382 38.604-14.382 38.604s8.915-9.42 33.641-9.42v-33.053a38.266 38.266 0 0 0-19.26 3.869Z" fill="url(#U)"/><path d="M93.443 424.448a52.678 52.678 0 0 0-13.962-1.598 54.344 54.344 0 0 0-14.045 1.598l-3.112 2.523a72.842 72.842 0 0 1 33.642 0l-2.523-2.523Z" fill="#0E0E0E"/><path d="M62.324 426.887a51.207 51.207 0 0 1 16.821-2.102 50.885 50.885 0 0 1 16.82 2.102l-.756-.673a71.041 71.041 0 0 0-16.232-1.682 74.571 74.571 0 0 0-16.232 1.598l-.42.757Z" fill="url(#V)"/><path d="M64 425.558a61.788 61.788 0 0 1 15.811-1.682 61.788 61.788 0 0 1 15.812 1.682h-.505a70.787 70.787 0 0 0-15.306-1.514A71.772 71.772 0 0 0 64 425.558Z" fill="url(#W)"/><path d="M65.01 424.714h-.42a59.298 59.298 0 0 1 14.802-1.513c5.014.151 9.989.942 14.802 2.354a66.054 66.054 0 0 0-14.466-1.513 70.235 70.235 0 0 0-14.718.672Z" fill="url(#X)"/><path d="M79.4 422.948a54.769 54.769 0 0 1 13.96 1.598l3.112 2.523a68.592 68.592 0 0 0-16.82-2.103 68.593 68.593 0 0 0-16.821 2.103l3.196-2.523a55.059 55.059 0 0 1 14.045-1.598H79.4Zm0 0a54.345 54.345 0 0 0-14.046 1.598l-3.112 2.523a71.458 71.458 0 0 1 16.82-2.018 71.458 71.458 0 0 1 16.822 2.018l-3.196-2.523a52.637 52.637 0 0 0-13.962-1.598h.673Z" fill="#4D4D4D"/><path style="mix-blend-mode:multiply" d="m50.548 603.004-6.392 2.607c5.72 4.289 26.409 5.551 35.156 5.551 8.746 0 28.763-1.177 34.903-5.299l-6.224-2.102-57.443-.757Z" fill="url(#Y)"/><path d="M107.995 488.876a96.887 96.887 0 0 0-57.022 0v114.886s4.878 3.532 28.763 3.532c23.886 0 28.68-3.532 28.68-3.532l-.421-114.886Z" fill="url(#Z)"/><path style="mix-blend-mode:hard-light" d="M55.166 546.569c0 32.212 0 58.284-.505 58.284s-.505-26.072-.505-58.284 0-58.284.505-58.284.505 26.072.505 58.284Z" fill="url(#aa)"/><path style="mix-blend-mode:hard-light" d="M60.13 546.569c0 32.212 0 58.284-.504 58.284-.505 0-.673-26.072-.673-58.284s0-58.284.505-58.284c.504 0 .673 26.072.673 58.284Z" fill="url(#ab)"/><path style="mix-blend-mode:hard-light" d="M65.091 538.167c0 20.773 0 37.678-.504 37.678-.505 0-.505-16.82-.505-37.678 0-20.858 0-37.679.505-37.679.504 0 .504 16.905.504 37.679Z" fill="url(#ac)"/><path style="mix-blend-mode:hard-light" d="M70.054 538.167c0 20.773 0 37.678-.504 37.678-.505 0-.59-16.82-.59-37.678 0-20.858 0-37.679.59-37.679.588 0 .504 16.905.504 37.679Z" fill="url(#ad)"/><path style="mix-blend-mode:hard-light" d="M75.015 538.167c0 20.773 0 37.678-.504 37.678-.505 0-.59-16.82-.59-37.678 0-20.858 0-37.679.59-37.679.588 0 .504 16.905.504 37.679Z" fill="url(#ae)"/><path style="mix-blend-mode:hard-light" d="M79.992 538.167c0 20.773 0 37.678-.505 37.678-.504 0-.589-16.82-.589-37.678 0-20.858 0-37.679.59-37.679.588 0 .504 16.905.504 37.679Z" fill="url(#af)"/><path style="mix-blend-mode:hard-light" d="M84.446 575.845c.279 0 .505-16.869.505-37.678 0-20.809-.226-37.679-.505-37.679s-.505 16.87-.505 37.679.226 37.678.505 37.678Z" fill="url(#ag)"/><path style="mix-blend-mode:hard-light" d="M89.914 538.167c0 20.773 0 37.678-.505 37.678s-.589-16.82-.589-37.678c0-20.858 0-37.679.589-37.679s.505 16.905.505 37.679Z" fill="url(#ah)"/><path style="mix-blend-mode:hard-light" d="M94.875 538.167c0 20.773 0 37.678-.505 37.678s-.589-16.82-.589-37.678c0-20.858 0-37.679.589-37.679s.505 16.905.505 37.679Z" fill="url(#ai)"/><path style="mix-blend-mode:hard-light" d="M99.84 546.569c0 32.212 0 58.284-.589 58.284s-.505-26.072-.505-58.284 0-58.284.505-58.284.589 26.072.589 58.284Z" fill="url(#aj)"/><path style="mix-blend-mode:hard-light" d="M104.801 546.569c0 32.212 0 58.284-.589 58.284s-.505-26.072-.505-58.284 0-58.284.505-58.284.589 26.072.589 58.284Z" fill="url(#ak)"/><path d="M82.84 492.833a2.188 2.188 0 1 1-4.371.168 2.188 2.188 0 0 1 4.372-.168Z" fill="url(#al)"/><path d="M80.648 495.856a1.012 1.012 0 0 1-1.01-.602 1.013 1.013 0 0 1-.083-.407v-1.514a1.013 1.013 0 0 1 .68-.958c.133-.045.274-.063.413-.051a1.01 1.01 0 0 1 1.01 1.009v1.514a1.01 1.01 0 0 1-1.01 1.009Z" fill="url(#am)"/><path d="M81.657 494.929a1.009 1.009 0 0 1-1.009 1.01 1.012 1.012 0 0 1-1.093-1.01 1.096 1.096 0 0 1 1.093-1.093.999.999 0 0 1 .745.325 1.002 1.002 0 0 1 .264.768Z" fill="url(#an)"/><path d="M58.954 426.387a28.797 28.797 0 0 0-3.027 4.121c-.841 1.514-1.598 3.028-2.355 4.541a102.48 102.48 0 0 0-3.028 9.588c-1.093 3.28-2.103 6.56-2.86 9.84 0 1.682-.757 3.365-1.093 5.047-.336 1.682-.673 3.364-.841 5.046a68.471 68.471 0 0 1 1.766-10.093 102.186 102.186 0 0 1 2.776-9.924 72.216 72.216 0 0 1 3.784-9.504 38.917 38.917 0 0 1 2.44-4.541 18.914 18.914 0 0 1 2.438-4.121Z" fill="url(#ao)" style="mix-blend-mode:multiply"/><path d="M99.496 426.305a18.324 18.324 0 0 1 3.112 4.121 38.967 38.967 0 0 1 2.355 4.541 97.197 97.197 0 0 1 3.785 9.588 218.797 218.797 0 0 1 2.775 9.924 85.266 85.266 0 0 1 1.934 10.093c0-1.682-.588-3.364-.925-5.046-.336-1.682-.757-3.364-1.177-4.962-.841-3.365-1.851-6.645-2.944-9.841a84.15 84.15 0 0 0-3.616-9.672 57.378 57.378 0 0 0-2.271-4.541 18.417 18.417 0 0 0-3.028-4.205Z" fill="url(#ap)" style="mix-blend-mode:multiply"/><g style="mix-blend-mode:soft-light"><path d="M60.299 430.348a25.818 25.818 0 0 0-15.391 8.41 136.078 136.078 0 0 0-.925 36.501 370.046 370.046 0 0 0 16.316-44.911Z" fill="gray"/><path d="M60.14 430.43a25.226 25.226 0 0 0-15.139 8.41 129.1 129.1 0 0 0-1.009 35.492A367.297 367.297 0 0 0 60.14 430.43Z" fill="#868686"/><path d="M59.877 430.594a25.23 25.23 0 0 0-14.886 8.41 129.183 129.183 0 0 0-1.01 34.567 341.006 341.006 0 0 0 15.896-42.977Z" fill="#8C8C8C"/><path d="M59.707 430.676a25.23 25.23 0 0 0-14.718 8.41 126.16 126.16 0 0 0-1.01 33.642 325.53 325.53 0 0 0 15.728-42.052Z" fill="#929292"/><path d="M59.472 430.855a24.48 24.48 0 0 0-14.382 8.411 118.918 118.918 0 0 0-1.093 32.632c6.16-13.282 11.333-27 15.475-41.043Z" fill="#989898"/><path d="M58.958 430.938a24.64 24.64 0 0 0-14.213 8.41 111.939 111.939 0 0 0-1.01 31.707 294.349 294.349 0 0 0 15.223-40.117Z" fill="#9E9E9E"/><path d="M58.968 431.105a23.55 23.55 0 0 0-13.878 8.411 105.298 105.298 0 0 0-1.093 30.698 282.5 282.5 0 0 0 14.97-39.109Z" fill="#A4A4A4"/><path d="M58.955 431.188a23.962 23.962 0 0 0-13.71 8.41 108.33 108.33 0 0 0-1.093 29.773 268.418 268.418 0 0 0 14.803-38.183Z" fill="#AAA"/><path d="M58.967 431.348a22.62 22.62 0 0 0-13.457 8.41 101.598 101.598 0 0 0-1.177 28.764 253.606 253.606 0 0 0 14.634-37.174Z" fill="#B0B0B0"/><path d="M58.447 431.531a22.371 22.371 0 0 0-13.204 7.822 98.234 98.234 0 0 0-1.177 28.259 233.724 233.724 0 0 0 14.381-36.081Z" fill="#B6B6B6"/><path d="M58.282 431.613a22.792 22.792 0 0 0-13.036 7.738 91.588 91.588 0 0 0-1.093 26.913 229.413 229.413 0 0 0 14.129-34.651Z" fill="#BCBCBC"/><path d="M58.027 431.777a21.446 21.446 0 0 0-12.7 7.654 85.282 85.282 0 0 0-1.177 25.904 218.655 218.655 0 0 0 13.877-33.558Z" fill="#C3C3C3"/><path d="M57.867 431.859a21.782 21.782 0 0 0-12.531 7.57 84.86 84.86 0 0 0-1.178 25.231 203.277 203.277 0 0 0 13.71-32.801Z" fill="#C9C9C9"/><path d="M57.689 432.023a20.942 20.942 0 0 0-12.28 7.486 81.323 81.323 0 0 0-1.26 23.969 201.239 201.239 0 0 0 13.54-31.455Z" fill="#CFCFCF"/><path d="M57.443 432.121c-4.748.994-9 3.611-12.027 7.401a78.135 78.135 0 0 0-1.262 23.045 175.187 175.187 0 0 0 13.288-30.446Z" fill="#D5D5D5"/><path d="M57.273 432.289a20.188 20.188 0 0 0-11.774 7.233 72.663 72.663 0 0 0-1.346 22.119 166.26 166.26 0 0 0 13.12-29.352Z" fill="#DBDBDB"/><path d="M57.019 432.367a20.183 20.183 0 0 0-11.523 7.233 65.771 65.771 0 0 0-1.261 21.11 158.527 158.527 0 0 0 12.784-28.343Z" fill="#E1E1E1"/><path d="M56.857 432.525c-.42-.505-9.924 3.364-11.354 7.065a65.094 65.094 0 0 0-1.261 20.185 149.872 149.872 0 0 0 12.615-27.25Z" fill="#E7E7E7"/><path d="M56.597 432.627c0-.505-9.672 3.364-11.017 7.064a59.378 59.378 0 0 0-1.346 19.512 139.527 139.527 0 0 0 12.363-26.576Z" fill="#EDEDED"/><path d="M56.434 432.792c0-.505-9.504 3.28-10.85 6.896a58.873 58.873 0 0 0-1.345 18.251 124.492 124.492 0 0 0 12.195-25.147Z" fill="#F3F3F3"/><path d="M56.276 432.875s-9.42 3.28-10.597 6.897a52.98 52.98 0 0 0-1.43 17.241 115.488 115.488 0 0 0 12.027-24.138Z" fill="#F9F9F9"/><path d="M56.014 433.043s-9.167 3.196-10.345 6.728a49.874 49.874 0 0 0-1.43 16.316 106.057 106.057 0 0 0 11.775-23.044Z" fill="#fff"/></g><g style="mix-blend-mode:soft-light"><path d="M97.723 429.504a29.016 29.016 0 0 1 16.316 9.167 136.612 136.612 0 0 1 1.514 35.66 357.863 357.863 0 0 1-17.83-44.827Z" fill="gray"/><path d="M97.969 429.586a29.177 29.177 0 0 1 15.979 9.083 129.733 129.733 0 0 1 1.514 34.735 349.899 349.899 0 0 1-17.493-43.818Z" fill="#868686"/><path d="M98.23 429.75a28.43 28.43 0 0 1 15.728 8.999 126.153 126.153 0 0 1 1.514 33.642 326.857 326.857 0 0 1-17.241-42.641Z" fill="#8C8C8C"/><path d="M98.48 429.93a27.832 27.832 0 0 1 15.391 8.831 119.733 119.733 0 0 1 1.514 32.884 322.257 322.257 0 0 1-16.904-41.715Z" fill="#929292"/><path d="M98.727 430.094a27.079 27.079 0 0 1 15.138 8.41 116.296 116.296 0 0 1 1.514 31.96 300.612 300.612 0 0 1-16.652-40.37Z" fill="#989898"/><path d="M98.988 430.262a26.239 26.239 0 0 1 14.803 8.41 113.117 113.117 0 0 1 1.513 31.034 295.536 295.536 0 0 1-16.316-39.444Z" fill="#9E9E9E"/><path d="M99.234 430.422a25.225 25.225 0 0 1 14.55 8.41 110.327 110.327 0 0 1 1.514 30.194 275.131 275.131 0 0 1-16.064-38.604Z" fill="#A4A4A4"/><path d="M99.398 430.504a25.991 25.991 0 0 1 14.382 8.41 105.978 105.978 0 0 1 1.43 29.184 272.587 272.587 0 0 1-15.812-37.594Z" fill="#AAA"/><path d="M99.66 430.688a25.22 25.22 0 0 1 14.045 8.41 100.894 100.894 0 0 1 1.514 28.511 257.075 257.075 0 0 1-15.559-36.921Z" fill="#B0B0B0"/><path d="M99.906 430.848a24.14 24.14 0 0 1 13.793 8.41 93.18 93.18 0 0 1 1.43 27.334 251.79 251.79 0 0 1-15.223-35.744Z" fill="#B6B6B6"/><path d="M100.152 431.016a23.548 23.548 0 0 1 13.457 7.989 93.872 93.872 0 0 1 1.514 26.493 228.981 228.981 0 0 1-14.971-34.482Z" fill="#BCBCBC"/><path d="M100.418 431.18a23.293 23.293 0 0 1 13.204 7.905 86.522 86.522 0 0 1 1.43 25.232 218.686 218.686 0 0 1-14.634-33.137Z" fill="#C3C3C3"/><path d="M101.008 431.277a22.88 22.88 0 0 1 12.868 7.822 84.117 84.117 0 0 1 1.514 24.642 196.414 196.414 0 0 1-14.382-32.464Z" fill="#C9C9C9"/><path d="M101.008 431.445a22.456 22.456 0 0 1 12.615 7.654 77.884 77.884 0 0 1 1.43 23.717 190.65 190.65 0 0 1-14.045-31.371Z" fill="#CFCFCF"/><path d="M101.008 431.605a21.7 21.7 0 0 1 12.363 7.57 77.466 77.466 0 0 1 1.43 22.792 175.522 175.522 0 0 1-13.793-30.362Z" fill="#D5D5D5"/><path d="M101.418 431.773a21.114 21.114 0 0 1 12.027 7.402 71.412 71.412 0 0 1 1.43 21.867 172.518 172.518 0 0 1-13.457-29.269Z" fill="#DBDBDB"/><path d="M101.68 431.934a20.429 20.429 0 0 1 11.774 7.317 70.4 70.4 0 0 1 1.43 20.857 152.2 152.2 0 0 1-13.204-28.174Z" fill="#E1E1E1"/><path d="M101.926 432.117a19.604 19.604 0 0 1 11.438 7.149 62.42 62.42 0 0 1 1.43 19.933 149.686 149.686 0 0 1-12.868-27.082Z" fill="#E7E7E7"/><path d="M102.176 432.192c0-.504 9.84 3.448 11.186 7.065a61.902 61.902 0 0 1 1.429 19.091 134.54 134.54 0 0 1-12.615-26.156Z" fill="#EDEDED"/><path d="M102.438 432.359s9.587 3.365 10.849 6.981a53.926 53.926 0 0 1 1.43 18.166 129.203 129.203 0 0 1-12.279-25.147Z" fill="#F3F3F3"/><path d="M102.684 432.527s9.335 3.28 10.597 6.813a55.578 55.578 0 0 1 1.429 16.821 110.831 110.831 0 0 1-12.026-23.634Z" fill="#F9F9F9"/><path d="M102.93 432.707s9.167 3.196 10.344 6.728a49.347 49.347 0 0 1 1.346 16.316 107.85 107.85 0 0 1-11.69-23.044Z" fill="#fff"/></g><path style="mix-blend-mode:hard-light" d="M57.11 447.661c-2.775 8.41-6.56 14.634-8.41 14.045-1.85-.589-1.093-7.906 1.682-16.316 2.776-8.41 6.645-14.634 8.41-13.961 1.767.673 1.178 7.905-1.681 16.232Z" fill="url(#aq)"/><path style="mix-blend-mode:hard-light" d="M108.411 443.296c2.27 8.411 2.607 15.812.756 16.316-1.85.505-5.298-5.971-7.653-14.465-2.355-8.495-2.607-15.896-.505-16.401 2.103-.504 5.047 5.972 7.402 14.55Z" fill="url(#ar)"/><path style="mix-blend-mode:multiply" d="M50.797 594.507c.186 0 .337-23.948.337-53.49 0-29.541-.15-53.49-.337-53.49-.185 0-.336 23.949-.336 53.49 0 29.542.15 53.49.336 53.49Z" fill="url(#as)"/><path style="mix-blend-mode:hard-light" d="M43.908 530.179c0 28.595 0 51.724-.673 51.724-.672 0-.672-23.129-.672-51.724 0-28.595 0-51.64.672-51.64.673 0 .673 23.129.673 51.64Z" fill="url(#at)"/><path style="mix-blend-mode:hard-light" d="M115.139 530.179c0 28.595 0 51.724.673 51.724s.757-23.129.757-51.724c0-28.595 0-51.64-.757-51.64s-.673 23.129-.673 51.64Z" fill="url(#au)"/><path d="m50.541 523.872-9.504-4.71 9.168 4.542v-28.091a200.549 200.549 0 0 0-6.224-26.576 1.43 1.43 0 0 0-1.346-1.01 1.683 1.683 0 0 1 1.598 1.178 198.632 198.632 0 0 1 6.224 26.661v28.343l.084-.337Z" fill="#ADADAD"/><path d="M107.988 523.866v-28.343a198.664 198.664 0 0 1 6.224-26.661 1.849 1.849 0 0 1 1.682-1.178h1.934-1.766a1.349 1.349 0 0 0-1.345 1.01 187.968 187.968 0 0 0-6.224 26.576v28.091l9.335-4.458-9.84 4.963Z" fill="#ADADAD" style="mix-blend-mode:multiply"/><path d="m44.155 470.297-3.87 2.355v.673a64.316 64.316 0 0 0-7.316 5.971 2.1 2.1 0 0 0 1.177.841 59.589 59.589 0 0 0 6.98-2.523l1.01-1.598a1.595 1.595 0 0 1 1.093-.673 2.353 2.353 0 0 1 1.346 0l-.42-5.046Z" fill="url(#av)"/><path d="M42.134 472.398a12.746 12.746 0 0 0-2.019 2.187 19.254 19.254 0 0 0-1.009 2.019l-6.055 2.439a10.09 10.09 0 0 1 2.186-3.785 10.266 10.266 0 0 1 6.897-2.86Z" fill="url(#aw)"/><path d="M41.38 477.605a27.84 27.84 0 0 1-6.812 2.691 1.765 1.765 0 0 1-.841-.505v-.504a10.68 10.68 0 0 1 6.055-2.439l1.598.757Z" fill="url(#ax)"/><path d="m39.199 477.02 1.85.589a22.734 22.734 0 0 1-6.56 2.523 1.011 1.011 0 0 1-.757 0 .59.59 0 0 1 0-.673c1.262-1.766 5.467-2.187 5.803-2.187l-.336-.252Zm0 0s-4.626 0-5.971 2.271a.591.591 0 0 0-.131.648c.03.073.075.138.13.193.271.103.57.103.842 0a27.84 27.84 0 0 0 6.812-2.691l-2.103-.757.42.336Z" fill="#1E1E1E"/><path d="m114.805 470.461 3.784 2.187v.672a60.49 60.49 0 0 1 7.401 5.972 2.524 2.524 0 0 1-1.177.841 55.963 55.963 0 0 1-7.065-2.523v-1.514a2.188 2.188 0 0 0-1.177-.673 4.696 4.696 0 0 0-1.43 0l-.336-4.962Z" fill="url(#ay)"/><path d="M116.645 472.398a12.759 12.759 0 0 1 2.018 2.187l1.093 2.019 6.056 2.439a10.09 10.09 0 0 0-2.187-3.785 10.6 10.6 0 0 0-6.98-2.86Z" fill="url(#az)"/><path d="M117.828 477.605a27.447 27.447 0 0 0 6.897 2.691 1.586 1.586 0 0 0 1.177-.505v-.504a10.508 10.508 0 0 0-5.971-2.439l-2.103.757Z" fill="url(#aA)"/><path d="M119.687 477.018c.42 0 4.541.42 5.803 2.187a.584.584 0 0 1 0 .672 1.002 1.002 0 0 1-.757 0c-2.3-.51-4.511-1.36-6.56-2.523l1.85-.588-.336.252Zm0 0-2.187.757a27.409 27.409 0 0 0 6.897 2.691c.27.104.57.104.841 0a.757.757 0 0 0 0-.841c-1.43-1.934-5.972-2.271-5.972-2.271l.421-.336Z" fill="#1E1E1E"/><path d="m62.326 458.007-.084-.421 8.41-.336v.421l-8.326.336Z" fill="url(#aB)"/><path d="M58.953 460.365a83.194 83.194 0 0 1 11.775-2.439c3.883-.411 7.785-.608 11.69-.589-3.877-.019-7.751.177-11.606.589a84.107 84.107 0 0 0-11.69 2.439h-.169Z" fill="url(#aC)"/><path d="m71.493 457.839-2.27.168v-.505l2.186-.252.084.589Z" fill="url(#aD)"/><path d="m55.934 458.775 6.728-.757v-.42l-2.944.084-3.784 1.093Z" fill="#231E22"/><path d="m91.178 456.737-.143.396 7.67 2.778.144-.395-7.67-2.779Z" fill="url(#aE)"/><path d="M109.416 463.817a108.423 108.423 0 0 0-10.766-3.785 84.116 84.116 0 0 0-12.279-2.102 87.854 87.854 0 0 1 12.363 2.102c5.888 1.682 10.766 3.785 10.85 3.785a.432.432 0 0 1-.168 0Z" fill="url(#aF)"/><path d="m99.415 460.369-2.103-.589.169-.589 2.186.673-.252.505Z" fill="url(#aG)"/><path d="m84.695 455.578 6.729 1.682.168-.336-2.776-1.009-4.12-.337Z" fill="#231E22"/><path d="M79.473 455.148H88.724c2.996.313 5.972.79 8.915 1.43a46.652 46.652 0 0 1 8.41 2.86 26.123 26.123 0 0 1 7.486 4.878 21.922 21.922 0 0 0-3.617-2.607l-2.018-1.094-2.019-.925a50.39 50.39 0 0 0-8.41-2.691 74.367 74.367 0 0 0-8.831-1.514h-4.457l-4.71-.337Z" fill="#fff"/><path d="M117.247 505.613c.588.505.841 2.187.841 4.878a11.108 11.108 0 0 1-1.178 5.972v-3.449a10.36 10.36 0 0 0 0-2.691c.088-.895.088-1.796 0-2.691l.337-2.019Z" fill="url(#aH)"/><path d="M117.83 507.797c.273.9.415 1.835.421 2.775a6.819 6.819 0 0 1-.505 2.608 10.94 10.94 0 0 0 0-2.608c.087-.922.115-1.849.084-2.775Z" fill="#252125"/><path d="M41.631 505.613c-.589.505-.757 2.187-.757 4.878a11.103 11.103 0 0 0 1.178 5.972v-3.449a12.7 12.7 0 0 1 0-2.691 18.174 18.174 0 0 1 0-2.691l-.42-2.019Z" fill="url(#aI)"/><path d="M41.471 507.797a9.755 9.755 0 0 0-.42 2.775c-.005.894.167 1.78.505 2.608a10.94 10.94 0 0 1 0-2.608 21.783 21.783 0 0 1-.085-2.775Z" fill="#252125"/><path d="M114.457 472.235v45.837l-5.551 2.944c0-3.28 0-22.12.421-27.839a179.256 179.256 0 0 1 5.046-21.11l.084.168Zm0-2.102a219.549 219.549 0 0 0-5.046 23.212c-.589 6.308 0 28.343 0 28.343l6.139-3.28v-48.275h-1.093Z" fill="url(#aJ)"/><path d="M44.404 472.224a179.289 179.289 0 0 1 5.047 21.11c.672 5.719.42 24.559.42 27.839l-5.55-3.112v-45.837h.083Zm0-2.102v47.939l6.056 3.28v-28.343a224.779 224.779 0 0 0-5.635-23.213l-.42.337Z" fill="url(#aK)"/><g style="mix-blend-mode:multiply"><path opacity=".05" d="M100.329 515.285H63.071a3.11 3.11 0 0 0-2.691 3.364v2.523a3.114 3.114 0 0 0 2.691 3.365h37.258a3.111 3.111 0 0 0 2.691-3.365v-2.523a3.11 3.11 0 0 0-2.691-3.364Z" fill="#FAFAFA"/><path opacity=".1" d="M100.16 515.449H63.07a3.03 3.03 0 0 0-2.69 3.28v2.355a3.025 3.025 0 0 0 2.69 3.28h37.09a3.029 3.029 0 0 0 2.692-3.28v-2.355a3.031 3.031 0 0 0-2.692-3.28Z" fill="#F5F5F5"/><path opacity=".14" d="M100.001 515.531H63.08a3.029 3.029 0 0 0-2.691 3.196v2.355a3.028 3.028 0 0 0 2.69 3.196h36.922a2.949 2.949 0 0 0 2.011-1.038 2.949 2.949 0 0 0 .681-2.158v-2.355a2.949 2.949 0 0 0-1.582-2.878 2.949 2.949 0 0 0-1.11-.318Z" fill="#F0EFF0"/><path opacity=".19" d="M99.822 515.711H63.068a2.862 2.862 0 0 0-2.489 1.997c-.112.36-.152.739-.118 1.115v2.271a2.943 2.943 0 0 0 2.608 3.111h36.753a2.942 2.942 0 0 0 2.691-3.111v-2.271a2.848 2.848 0 0 0-.685-2.127 2.845 2.845 0 0 0-2.006-.985Z" fill="#EBEAEB"/><path opacity=".24" d="M99.747 515.793H63.16a2.85 2.85 0 0 0-1.974.955 2.856 2.856 0 0 0-.717 2.073v2.186a2.858 2.858 0 0 0 2.691 3.028h36.586a2.858 2.858 0 0 0 2.607-3.028v-2.186a2.858 2.858 0 0 0-2.607-3.028Z" fill="#E6E5E6"/><path opacity=".29" d="M99.576 515.879H63.16a2.78 2.78 0 0 0-1.915.93 2.776 2.776 0 0 0-.693 2.014v2.186a2.776 2.776 0 0 0 2.608 2.944h36.416a2.777 2.777 0 0 0 2.608-2.944v-2.186a2.787 2.787 0 0 0-.693-2.014 2.783 2.783 0 0 0-1.915-.93Z" fill="#E1E0E1"/><path opacity=".33" d="M99.404 516.043H63.156a2.773 2.773 0 0 0-2.608 2.859v2.103a2.776 2.776 0 0 0 2.608 2.86h36.248a2.775 2.775 0 0 0 2.607-2.86v-2.103a2.772 2.772 0 0 0-2.607-2.859Z" fill="#DCDADC"/><path opacity=".38" d="M99.236 516.121h-36.08a2.683 2.683 0 0 0-1.88.847 2.693 2.693 0 0 0-.728 1.929v2.018a2.696 2.696 0 0 0 1.584 2.539c.322.145.67.226 1.024.236h36.08a2.684 2.684 0 0 0 2.435-1.738 2.7 2.7 0 0 0 .172-1.037v-2.018a2.696 2.696 0 0 0-.728-1.929 2.697 2.697 0 0 0-1.879-.847Z" fill="#D7D5D7"/><path opacity=".43" d="M99.066 516.305H63.237a2.615 2.615 0 0 0-1.873.793 2.604 2.604 0 0 0-.734 1.898v1.934a2.606 2.606 0 0 0 2.607 2.692h35.829a2.613 2.613 0 0 0 1.874-.793 2.612 2.612 0 0 0 .733-1.899v-1.934a2.618 2.618 0 0 0-.733-1.898 2.614 2.614 0 0 0-1.874-.793Z" fill="#D2D0D2"/><path opacity=".48" d="M98.98 516.387H63.236a2.607 2.607 0 0 0-2.607 2.607v1.934a2.608 2.608 0 0 0 2.607 2.608H98.98a2.606 2.606 0 0 0 2.523-2.608v-1.934a2.606 2.606 0 0 0-2.523-2.607Z" fill="#CDCBCD"/><path opacity=".52" d="M98.812 516.469H63.236a2.608 2.608 0 0 0-2.607 2.523v1.85a2.526 2.526 0 0 0 1.616 2.356c.316.122.653.179.991.167h35.576a2.428 2.428 0 0 0 1.81-.713 2.428 2.428 0 0 0 .713-1.81v-1.85a2.522 2.522 0 0 0-2.523-2.523Z" fill="#C7C5C9"/><path opacity=".57" d="M98.642 516.634H63.234a2.454 2.454 0 0 0-1.78.684 2.449 2.449 0 0 0-.743 1.755v1.766a2.443 2.443 0 0 0 1.564 2.279c.306.117.632.172.96.16h35.407a2.435 2.435 0 0 0 2.523-2.439v-1.766a2.46 2.46 0 0 0-.193-.953 2.451 2.451 0 0 0-2.33-1.486Z" fill="#C2C0C4"/><path opacity=".62" d="M98.474 516.716h-35.24a2.527 2.527 0 0 0-2.523 2.355v1.766a2.44 2.44 0 0 0 2.523 2.271h35.24a2.348 2.348 0 0 0 1.744-.598 2.358 2.358 0 0 0 .779-1.673v-1.766a2.438 2.438 0 0 0-2.523-2.355Z" fill="#BDBBBF"/><path opacity=".67" d="M98.305 516.885H63.318a2.434 2.434 0 0 0-1.775.594 2.433 2.433 0 0 0-.832 1.677v1.598a2.435 2.435 0 0 0 1.66 2.151c.305.102.627.143.947.12h34.987a2.367 2.367 0 0 0 1.745-.599 2.347 2.347 0 0 0 .778-1.672v-1.598a2.345 2.345 0 0 0-.778-1.672 2.342 2.342 0 0 0-1.745-.599Z" fill="#B8B6BA"/><path opacity=".71" d="M98.135 516.967H63.316c-.31-.023-.62.016-.915.114a2.347 2.347 0 0 0-1.608 2.073v1.598a2.347 2.347 0 0 0 .807 1.618 2.366 2.366 0 0 0 1.716.569h34.819a2.365 2.365 0 0 0 1.716-.569c.235-.203.427-.451.565-.729.139-.277.221-.579.242-.889v-1.598a2.337 2.337 0 0 0-.242-.889 2.337 2.337 0 0 0-1.366-1.184 2.347 2.347 0 0 0-.915-.114Z" fill="#B3B0B5"/><path opacity=".76" d="M98.05 517.045H63.317a2.442 2.442 0 0 0-2.523 2.103v1.598a2.353 2.353 0 0 0 2.523 2.018h34.735a2.267 2.267 0 0 0 2.439-2.018v-1.598a2.354 2.354 0 0 0-2.44-2.103Z" fill="#AEABB0"/><path opacity=".81" d="M97.896 517.215H63.33a2.271 2.271 0 0 0-2.44 2.018v1.43a2.272 2.272 0 0 0 2.439 2.019h34.567a2.355 2.355 0 0 0 2.523-2.019v-1.43a2.35 2.35 0 0 0-2.523-2.018Z" fill="#A9A6AB"/><path opacity=".86" d="M97.728 517.306H63.414a2.27 2.27 0 0 0-2.523 1.934v1.43a2.27 2.27 0 0 0 2.523 1.934h34.314c1.346 0 2.523-.925 2.523-1.934v-1.43c0-1.177-1.177-1.934-2.523-1.934Z" fill="#A4A1A6"/><path opacity=".9" d="M97.56 517.473H63.414c-1.346 0-2.523.757-2.523 1.766v1.345c0 1.094 1.177 1.851 2.523 1.851H97.56c1.346 0 2.523-.757 2.523-1.851v-1.345c0-1.178-1.177-1.766-2.523-1.766Z" fill="#9F9BA1"/><path opacity=".95" d="M97.385 517.555H63.744c-1.346 0-2.44.757-2.44 1.766v1.261c0 1.01 1.094 1.767 2.44 1.767h33.641c1.346 0 2.523-.757 2.523-1.767v-1.261c0-1.262-1.177-1.766-2.523-1.766Z" fill="#9A969C"/><path d="M97.303 518.059H63.662c-1.346 0-2.44.757-2.44 1.682v1.261c0 .925 1.094 1.682 2.44 1.682h33.641c1.346 0 2.44-.757 2.44-1.682v-1.261c0-1.682-1.094-1.682-2.44-1.682Z" fill="#959197"/></g><path d="M62.908 515.207a2.607 2.607 0 0 0-2.607 2.607v1.851a2.607 2.607 0 0 0 2.607 2.607h17.746v-7.065H62.908Z" fill="#4155FF"/><path d="M101.005 519.654v-1.598a2.505 2.505 0 0 0-.708-1.838 2.519 2.519 0 0 0-1.815-.769h-17.83v7.065h17.83a2.516 2.516 0 0 0 1.915-.854 2.522 2.522 0 0 0 .608-2.006Z" fill="#4155FF"/><path style="mix-blend-mode:multiply" d="M101.002 518.738v.925a2.524 2.524 0 0 1-2.523 2.608H85.695v-3.533h15.307Z" fill="url(#aL)"/><path style="mix-blend-mode:overlay" d="M101.002 518.053a2.518 2.518 0 0 0-1.934-2.186c-1.682-.421-13.373 0-13.373 0v1.429H98.9c.756.058 1.482.32 2.102.757Z" fill="url(#aM)"/><path style="mix-blend-mode:overlay" d="M101.002 519.246a2.602 2.602 0 0 1-1.934 2.271H85.695v-1.514H98.9a4.782 4.782 0 0 0 2.102-.757Z" fill="url(#aN)"/><path style="mix-blend-mode:overlay" d="M101.002 518.904a2.605 2.605 0 0 0-1.934-2.271H85.695v1.43H98.9a4.192 4.192 0 0 1 2.102.841Z" fill="url(#aO)"/><path style="mix-blend-mode:multiply" d="M60.3 518.738v.925a2.608 2.608 0 0 0 2.608 2.608h12.868v-3.533H60.3Z" fill="url(#aP)"/><path style="mix-blend-mode:overlay" d="M60.3 518.053a2.691 2.691 0 0 1 2.02-2.186c1.681-.421 13.372 0 13.372 0v1.429H62.488a4.718 4.718 0 0 0-2.187.757Z" fill="url(#aQ)"/><path style="mix-blend-mode:overlay" d="M60.3 519.246a2.695 2.695 0 0 0 2.02 2.271h13.372v-1.514H62.488a5.452 5.452 0 0 1-2.187-.757Z" fill="url(#aR)"/><path style="mix-blend-mode:overlay" d="M60.3 518.904a2.692 2.692 0 0 1 2.02-2.271h13.372v1.43H62.488a4.703 4.703 0 0 0-2.187.841Z" fill="url(#aS)"/><path d="M85.704 515.285H75.695v7.065h10.009v-7.065Z" fill="url(#aT)"/><path style="mix-blend-mode:multiply" d="M76.273 515.285h-.925v7.065h.925v-7.065Z" fill="url(#aU)"/><path style="mix-blend-mode:multiply" d="M85.034 522.266h1.009v-7.065h-1.01v7.065Z" fill="url(#aV)"/><g style="mix-blend-mode:multiply"><path d="M62.908 515.203a2.607 2.607 0 0 0-2.607 2.607v1.851a2.607 2.607 0 0 0 2.607 2.607h17.746v-7.065H62.908Z" fill="url(#aW)"/><path d="M101.005 519.654v-1.598a2.505 2.505 0 0 0-.708-1.838 2.519 2.519 0 0 0-1.815-.769h-17.83v7.065h17.83a2.516 2.516 0 0 0 1.915-.854 2.522 2.522 0 0 0 .608-2.006Z" fill="url(#aX)"/></g><g style="mix-blend-mode:overlay"><path d="M62.908 515.203a2.607 2.607 0 0 0-2.607 2.607v1.851a2.607 2.607 0 0 0 2.607 2.607h17.746v-7.065H62.908Z" fill="url(#aY)"/><path d="M101.005 519.654v-1.598a2.505 2.505 0 0 0-.708-1.838 2.519 2.519 0 0 0-1.815-.769h-17.83v7.065h17.83a2.516 2.516 0 0 0 1.915-.854 2.522 2.522 0 0 0 .608-2.006Z" fill="url(#aZ)"/></g></g><g filter="url(#ba)"><rect x="85" y="49" width="359.338" height="84.001" rx="42.001" fill="#fff"/><rect x="85.5" y="49.5" width="358.338" height="83.001" rx="41.501" stroke="#F6F8FB"/><circle cx="126.999" cy="90.999" r="32.667" fill="#74B9F9" fill-opacity=".1"/><path d="M173.425 79.352c0-1.269.292-2.408.877-3.416a6.336 6.336 0 0 1 2.408-2.352 6.718 6.718 0 0 1 3.342-.858c1.381 0 2.607.342 3.677 1.026 1.083.672 1.867 1.63 2.352 2.875h-2.557c-.336-.684-.803-1.195-1.4-1.53-.598-.337-1.288-.505-2.072-.505-.859 0-1.624.193-2.296.579a4.09 4.09 0 0 0-1.587 1.661c-.373.722-.56 1.562-.56 2.52 0 .959.187 1.799.56 2.52a4.22 4.22 0 0 0 1.587 1.68c.672.386 1.437.58 2.296.58.784 0 1.474-.169 2.072-.505.597-.336 1.064-.846 1.4-1.53h2.557c-.485 1.244-1.269 2.202-2.352 2.874-1.07.672-2.296 1.008-3.677 1.008-1.22 0-2.334-.28-3.342-.84a6.477 6.477 0 0 1-2.408-2.37c-.585-1.009-.877-2.147-.877-3.417Zm16.528-7.298v13.813h-2.128V72.054h2.128Zm3.13 2.165c-.385 0-.709-.13-.97-.392a1.316 1.316 0 0 1-.392-.97c0-.386.13-.71.392-.971.261-.262.585-.392.97-.392.374 0 .691.13.952.392.262.261.392.585.392.97 0 .386-.13.71-.392.971a1.294 1.294 0 0 1-.952.392Zm1.046 1.363v10.285h-2.128V75.582h2.128Zm7.236-.168c.809 0 1.531.168 2.166.504a3.572 3.572 0 0 1 1.512 1.493c.361.66.541 1.456.541 2.39v6.066h-2.109v-5.75c0-.92-.231-1.623-.691-2.109-.46-.497-1.089-.746-1.885-.746-.797 0-1.431.249-1.904.746-.461.486-.691 1.189-.691 2.11v5.75h-2.128V75.581h2.128v1.176c.348-.423.79-.753 1.325-.99a4.336 4.336 0 0 1 1.736-.354Zm7.269-1.195c-.385 0-.709-.13-.97-.392a1.316 1.316 0 0 1-.392-.97c0-.386.13-.71.392-.971.261-.262.585-.392.97-.392.374 0 .691.13.953.392.261.261.392.585.392.97 0 .386-.131.71-.392.971a1.298 1.298 0 0 1-.953.392Zm1.046 1.363v10.285h-2.128V75.582h2.128Zm1.338 5.133c0-1.058.211-1.985.634-2.781.436-.81 1.033-1.431 1.792-1.867.76-.435 1.631-.653 2.614-.653 1.244 0 2.271.298 3.08.896.821.585 1.375 1.425 1.661 2.52h-2.296a2.422 2.422 0 0 0-.896-1.195c-.411-.286-.927-.43-1.549-.43-.871 0-1.568.312-2.091.934-.51.61-.765 1.469-.765 2.576 0 1.108.255 1.973.765 2.595.523.622 1.22.933 2.091.933 1.232 0 2.047-.541 2.445-1.624h2.296c-.298 1.046-.858 1.88-1.68 2.502-.821.61-1.842.914-3.061.914-.983 0-1.854-.218-2.614-.653a4.794 4.794 0 0 1-1.792-1.867c-.423-.809-.634-1.742-.634-2.8Zm27.708-5.301c.809 0 1.531.168 2.166.504a3.572 3.572 0 0 1 1.512 1.493c.373.66.56 1.456.56 2.39v6.066h-2.11v-5.75c0-.92-.23-1.623-.69-2.109-.461-.497-1.089-.746-1.886-.746-.796 0-1.431.249-1.904.746-.46.486-.69 1.189-.69 2.11v5.75h-2.11v-5.75c0-.921-.23-1.624-.69-2.11-.461-.497-1.089-.746-1.886-.746-.796 0-1.431.249-1.904.746-.46.486-.69 1.189-.69 2.11v5.75h-2.128V75.581h2.128v1.176c.348-.423.79-.753 1.325-.99a4.201 4.201 0 0 1 1.717-.354c.822 0 1.556.174 2.203.522a3.57 3.57 0 0 1 1.493 1.512c.312-.622.797-1.113 1.456-1.474a4.252 4.252 0 0 1 2.128-.56Zm15.626 5.058c0 .386-.025.735-.075 1.046h-7.859c.063.821.367 1.48.915 1.978s1.22.747 2.016.747c1.145 0 1.954-.479 2.427-1.437h2.296a4.666 4.666 0 0 1-1.699 2.333c-.809.598-1.817.896-3.024.896-.983 0-1.867-.218-2.651-.653a4.886 4.886 0 0 1-1.829-1.867c-.436-.809-.653-1.742-.653-2.8 0-1.058.211-1.985.634-2.781a4.592 4.592 0 0 1 1.811-1.867c.784-.435 1.68-.653 2.688-.653.971 0 1.836.211 2.595.634a4.468 4.468 0 0 1 1.773 1.792c.423.76.635 1.637.635 2.632Zm-2.222-.672c-.012-.784-.292-1.412-.84-1.885-.547-.473-1.225-.71-2.034-.71-.734 0-1.363.237-1.886.71-.522.46-.833 1.089-.933 1.885h5.693Zm2.86.878c0-1.033.212-1.948.635-2.744a4.737 4.737 0 0 1 4.237-2.52c.672 0 1.332.15 1.979.448.659.286 1.182.672 1.568 1.157v-4.965h2.146v13.813h-2.146v-1.55c-.349.499-.834.91-1.456 1.233-.61.323-1.313.485-2.11.485a4.7 4.7 0 0 1-2.464-.672 4.984 4.984 0 0 1-1.754-1.904c-.423-.821-.635-1.748-.635-2.781Zm8.419.037c0-.71-.15-1.325-.448-1.848a3.013 3.013 0 0 0-1.139-1.195 3.004 3.004 0 0 0-1.531-.41c-.547 0-1.057.137-1.53.41-.473.262-.859.654-1.158 1.176-.286.51-.429 1.12-.429 1.83s.143 1.331.429 1.867c.299.535.685.945 1.158 1.231.485.274.995.411 1.53.411.548 0 1.058-.137 1.531-.41a3.013 3.013 0 0 0 1.139-1.195c.298-.535.448-1.157.448-1.867Zm5.278-6.496c-.386 0-.71-.13-.971-.392a1.32 1.32 0 0 1-.392-.97c0-.386.131-.71.392-.971.261-.262.585-.392.971-.392.373 0 .69.13.952.392.261.261.392.585.392.97 0 .386-.131.71-.392.971a1.297 1.297 0 0 1-.952.392Zm1.045 1.363v10.285h-2.128V75.582h2.128Zm1.338 5.133c0-1.058.211-1.985.634-2.781.436-.81 1.033-1.431 1.792-1.867.76-.435 1.631-.653 2.614-.653 1.244 0 2.271.298 3.08.896.821.585 1.375 1.425 1.661 2.52h-2.296a2.422 2.422 0 0 0-.896-1.195c-.41-.286-.927-.43-1.549-.43-.871 0-1.568.312-2.091.934-.51.61-.765 1.469-.765 2.576 0 1.108.255 1.973.765 2.595.523.622 1.22.933 2.091.933 1.232 0 2.047-.541 2.445-1.624h2.296c-.298 1.046-.858 1.88-1.68 2.502-.821.61-1.842.914-3.061.914-.983 0-1.854-.218-2.614-.653a4.794 4.794 0 0 1-1.792-1.867c-.423-.809-.634-1.742-.634-2.8Zm10.446-.037c0-1.033.212-1.948.635-2.744.435-.797 1.02-1.413 1.754-1.848a4.7 4.7 0 0 1 2.464-.672c.809 0 1.512.162 2.11.485.61.311 1.095.703 1.456 1.176v-1.493h2.146v10.285h-2.146v-1.53c-.361.485-.853.89-1.475 1.213-.622.323-1.332.485-2.128.485a4.572 4.572 0 0 1-2.427-.672 4.984 4.984 0 0 1-1.754-1.904c-.423-.821-.635-1.748-.635-2.781Zm8.419.037c0-.71-.15-1.325-.448-1.848a3.013 3.013 0 0 0-1.139-1.195 3.004 3.004 0 0 0-1.531-.41c-.547 0-1.057.137-1.53.41-.473.262-.859.654-1.158 1.176-.286.51-.429 1.12-.429 1.83s.143 1.331.429 1.867c.299.535.685.945 1.158 1.231.485.274.995.411 1.53.411.548 0 1.058-.137 1.531-.41a3.013 3.013 0 0 0 1.139-1.195c.298-.535.448-1.157.448-1.867Zm6.323-8.661v13.813h-2.128V72.054h2.128Zm5.44 8.661c0-1.058.212-1.985.635-2.781a4.625 4.625 0 0 1 1.792-1.867c.759-.435 1.63-.653 2.613-.653 1.245 0 2.271.298 3.08.896.822.585 1.375 1.425 1.662 2.52h-2.296a2.434 2.434 0 0 0-.896-1.195c-.411-.286-.928-.43-1.55-.43-.871 0-1.568.312-2.091.934-.51.61-.765 1.469-.765 2.576 0 1.108.255 1.973.765 2.595.523.622 1.22.933 2.091.933 1.232 0 2.047-.541 2.446-1.624h2.296c-.299 1.046-.859 1.88-1.68 2.502-.822.61-1.842.914-3.062.914-.983 0-1.854-.218-2.613-.653a4.787 4.787 0 0 1-1.792-1.867c-.423-.809-.635-1.742-.635-2.8Zm20.582-.243c0 .386-.024.735-.074 1.046h-7.859c.062.821.367 1.48.915 1.978.547.498 1.219.747 2.016.747 1.145 0 1.953-.479 2.426-1.437H322a4.664 4.664 0 0 1-1.698 2.333c-.809.598-1.817.896-3.024.896-.983 0-1.867-.218-2.651-.653a4.879 4.879 0 0 1-1.829-1.867c-.436-.809-.654-1.742-.654-2.8 0-1.058.212-1.985.635-2.781a4.592 4.592 0 0 1 1.811-1.867c.784-.435 1.68-.653 2.688-.653.97 0 1.835.211 2.594.634a4.464 4.464 0 0 1 1.774 1.792c.423.76.634 1.637.634 2.632Zm-2.221-.672c-.012-.784-.292-1.412-.84-1.885-.548-.473-1.226-.71-2.035-.71-.734 0-1.362.237-1.885.71-.523.46-.834 1.089-.933 1.885h5.693Zm8.758-4.386c.809 0 1.531.168 2.166.504a3.572 3.572 0 0 1 1.512 1.493c.361.66.541 1.456.541 2.39v6.066h-2.109v-5.75c0-.92-.231-1.623-.691-2.109-.46-.497-1.089-.746-1.885-.746-.797 0-1.431.249-1.904.746-.461.486-.691 1.189-.691 2.11v5.75h-2.128V75.581h2.128v1.176c.348-.423.79-.753 1.325-.99a4.336 4.336 0 0 1 1.736-.354Zm8.67 1.904v5.693c0 .386.087.666.261.84.187.162.498.243.933.243h1.307v1.773h-1.68c-.958 0-1.693-.224-2.203-.672-.51-.448-.765-1.176-.765-2.184v-5.693h-1.214v-1.736h1.214v-2.558h2.147v2.558h2.501v1.736h-2.501Zm5.844-.243a3.285 3.285 0 0 1 1.232-1.213c.522-.299 1.138-.448 1.848-.448v2.202h-.542c-.834 0-1.468.212-1.904.635-.423.423-.634 1.157-.634 2.203v5.413h-2.128V75.582h2.128v1.493Zm13.716 3.397c0 .386-.025.735-.075 1.046h-7.859c.063.821.367 1.48.915 1.978s1.22.747 2.016.747c1.145 0 1.954-.479 2.427-1.437h2.296a4.666 4.666 0 0 1-1.699 2.333c-.809.598-1.817.896-3.024.896-.983 0-1.867-.218-2.651-.653a4.886 4.886 0 0 1-1.829-1.867c-.436-.809-.653-1.742-.653-2.8 0-1.058.211-1.985.634-2.781a4.592 4.592 0 0 1 1.811-1.867c.784-.435 1.68-.653 2.688-.653.971 0 1.836.211 2.595.634a4.468 4.468 0 0 1 1.773 1.792c.423.76.635 1.637.635 2.632Zm-2.222-.672c-.012-.784-.292-1.412-.84-1.885-.547-.473-1.225-.71-2.034-.71-.734 0-1.363.237-1.886.71-.522.46-.833 1.089-.933 1.885h5.693Z" fill="#0E1121"/><path d="M173.231 103.77v-1.085h2.456v9.448h-1.202v-8.363h-1.254Zm5.766 5.828c.088.496.288.88.602 1.15.322.27.753.405 1.293.405.723 0 1.255-.283 1.594-.85.349-.566.514-1.52.497-2.861-.183.392-.488.701-.915.928a3.096 3.096 0 0 1-1.424.326c-.584 0-1.106-.117-1.568-.353a2.661 2.661 0 0 1-1.072-1.058c-.261-.462-.392-1.019-.392-1.673 0-.932.27-1.681.811-2.247.54-.575 1.306-.862 2.299-.862 1.22 0 2.074.396 2.561 1.189.497.792.745 1.973.745 3.541 0 1.097-.1 2.003-.3 2.718-.192.714-.523 1.258-.993 1.633-.462.375-1.098.562-1.908.562-.889 0-1.581-.24-2.078-.719-.496-.479-.779-1.089-.849-1.829h1.097Zm1.843-1.908c.584 0 1.063-.178 1.437-.536.375-.366.562-.858.562-1.476 0-.654-.183-1.181-.549-1.581-.366-.401-.88-.601-1.542-.601-.609 0-1.097.191-1.463.575-.357.383-.536.888-.536 1.515 0 .636.179 1.146.536 1.529.357.383.875.575 1.555.575Zm4.598-.379c0-1.498.244-2.665.732-3.502.487-.845 1.341-1.267 2.561-1.267 1.211 0 2.06.422 2.548 1.267.488.837.732 2.004.732 3.502 0 1.525-.244 2.709-.732 3.554-.488.845-1.337 1.268-2.548 1.268-1.22 0-2.074-.423-2.561-1.268-.488-.845-.732-2.029-.732-3.554Zm5.397 0c0-.758-.053-1.398-.157-1.921-.096-.531-.301-.958-.614-1.28-.305-.323-.75-.484-1.333-.484-.593 0-1.046.161-1.359.484-.305.322-.51.749-.614 1.28-.096.523-.144 1.163-.144 1.921 0 .784.048 1.442.144 1.973.104.532.309.958.614 1.281.313.322.766.483 1.359.483.583 0 1.028-.161 1.333-.483.313-.323.518-.749.614-1.281.104-.531.157-1.189.157-1.973Zm2.233-3.541v-1.085h2.457v9.448h-1.203v-8.363h-1.254Zm13.262-.745v.967h-2.483v8.141h-1.189v-8.141h-2.496v-.967h6.168Zm4.756 1.817c.54 0 1.028.117 1.464.352.435.227.775.571 1.019 1.033.253.461.379 1.023.379 1.685v4.221h-1.176v-4.051c0-.714-.179-1.259-.536-1.633-.357-.384-.845-.575-1.463-.575-.628 0-1.128.196-1.503.588-.366.392-.549.962-.549 1.712v3.959h-1.189v-9.67h1.189v3.528c.235-.365.558-.649.967-.849.418-.2.884-.3 1.398-.3Zm7.666 7.408a3.697 3.697 0 0 1-1.829-.457 3.32 3.32 0 0 1-1.281-1.294c-.305-.566-.457-1.219-.457-1.96 0-.731.156-1.376.47-1.933a3.266 3.266 0 0 1 1.307-1.294 3.728 3.728 0 0 1 1.842-.457c.68 0 1.294.152 1.843.457.548.296.98.723 1.293 1.28.323.558.484 1.207.484 1.947 0 .741-.166 1.394-.497 1.96a3.358 3.358 0 0 1-1.32 1.294 3.8 3.8 0 0 1-1.855.457Zm0-1.045c.427 0 .827-.1 1.202-.3a2.25 2.25 0 0 0 .902-.902c.235-.401.352-.889.352-1.464s-.113-1.062-.339-1.463a2.186 2.186 0 0 0-.889-.889 2.44 2.44 0 0 0-1.189-.3c-.435 0-.836.1-1.202.3a2.122 2.122 0 0 0-.862.889c-.218.401-.327.888-.327 1.463 0 .584.104 1.076.313 1.477.218.401.506.701.863.902.357.191.749.287 1.176.287Zm6.163-5.07a2.3 2.3 0 0 1 .888-.954c.392-.226.867-.339 1.425-.339v1.228h-.314c-1.333 0-1.999.723-1.999 2.169v3.894h-1.189v-7.161h1.189v1.163Zm6.913-1.293c.871 0 1.577.265 2.117.797.54.522.81 1.28.81 2.273v4.221h-1.176v-4.051c0-.714-.179-1.259-.536-1.633-.357-.384-.845-.575-1.463-.575-.628 0-1.129.196-1.503.588-.366.392-.549.962-.549 1.712v3.959h-1.189v-7.161h1.189v1.019a2.37 2.37 0 0 1 .954-.849c.409-.2.858-.3 1.346-.3Zm5.797 1.293a2.3 2.3 0 0 1 .888-.954c.392-.226.867-.339 1.425-.339v1.228h-.314c-1.333 0-1.999.723-1.999 2.169v3.894h-1.189v-7.161h1.189v1.163Zm4.038-2.326a.782.782 0 0 1-.575-.235.78.78 0 0 1-.235-.575c0-.226.078-.418.235-.575a.782.782 0 0 1 .575-.235c.218 0 .401.078.549.235a.782.782 0 0 1 .235.575.78.78 0 0 1-.235.575.724.724 0 0 1-.549.235Zm.575 1.163v7.161h-1.189v-7.161h1.189Zm1.321 3.554c0-.731.148-1.372.444-1.92a3.233 3.233 0 0 1 1.216-1.294 3.407 3.407 0 0 1 1.751-.457c.557 0 1.075.13 1.554.392.48.252.845.588 1.098 1.006v-3.79h1.202v9.67h-1.202v-1.346c-.235.427-.584.78-1.045 1.058-.462.27-1.002.405-1.621.405a3.307 3.307 0 0 1-1.737-.47 3.311 3.311 0 0 1-1.216-1.32c-.296-.566-.444-1.211-.444-1.934Zm6.063.013c0-.54-.109-1.01-.327-1.411a2.243 2.243 0 0 0-.888-.914 2.33 2.33 0 0 0-1.215-.327c-.445 0-.85.104-1.216.313-.365.21-.657.514-.875.915-.218.401-.327.871-.327 1.411 0 .549.109 1.028.327 1.438.218.4.51.71.875.927.366.21.771.314 1.216.314.444 0 .849-.104 1.215-.314.374-.217.671-.527.888-.927.218-.41.327-.884.327-1.425Zm5.903-3.684c.619 0 1.159.135 1.621.405.47.27.819.609 1.045 1.019v-1.307h1.202v7.318c0 .653-.139 1.232-.418 1.738a2.967 2.967 0 0 1-1.202 1.202c-.514.287-1.115.431-1.803.431-.941 0-1.725-.222-2.352-.667a2.603 2.603 0 0 1-1.111-1.816h1.176c.131.436.401.784.81 1.046.41.27.902.405 1.477.405.653 0 1.184-.205 1.594-.615.418-.409.627-.984.627-1.724v-1.503c-.235.418-.584.767-1.045 1.045-.462.279-1.002.418-1.621.418a3.307 3.307 0 0 1-1.737-.47 3.311 3.311 0 0 1-1.216-1.32c-.296-.566-.444-1.211-.444-1.934 0-.731.148-1.372.444-1.92a3.233 3.233 0 0 1 1.216-1.294 3.382 3.382 0 0 1 1.737-.457Zm2.666 3.684c0-.54-.109-1.01-.327-1.411a2.243 2.243 0 0 0-.888-.914 2.33 2.33 0 0 0-1.215-.327c-.445 0-.85.104-1.216.313-.365.21-.657.514-.875.915-.218.401-.327.871-.327 1.411 0 .549.109 1.028.327 1.438.218.4.51.71.875.927.366.21.771.314 1.216.314.444 0 .849-.104 1.215-.314.374-.217.671-.527.888-.927.218-.41.327-.884.327-1.425Zm9.484-.261c0 .227-.013.466-.039.719h-5.724c.044.705.283 1.259.719 1.659.444.392.98.588 1.607.588.514 0 .941-.117 1.281-.353a1.92 1.92 0 0 0 .731-.966h1.281a3.109 3.109 0 0 1-1.15 1.685c-.575.427-1.289.64-2.143.64-.679 0-1.289-.152-1.829-.457a3.258 3.258 0 0 1-1.255-1.294c-.304-.566-.457-1.219-.457-1.96 0-.74.148-1.389.444-1.947.297-.557.71-.984 1.242-1.28.54-.305 1.158-.457 1.855-.457.68 0 1.281.148 1.803.444a3.02 3.02 0 0 1 1.203 1.228c.287.514.431 1.098.431 1.751Zm-1.229-.248c0-.453-.1-.841-.3-1.163a1.895 1.895 0 0 0-.823-.745 2.459 2.459 0 0 0-1.137-.261c-.601 0-1.115.191-1.542.575-.418.383-.658.914-.719 1.594h4.521Zm5.315-.458c0-.888.2-1.685.601-2.391a4.366 4.366 0 0 1 1.633-1.672 4.555 4.555 0 0 1 2.313-.601c.993 0 1.86.239 2.601.718.74.479 1.28 1.159 1.62 2.039h-1.424a2.85 2.85 0 0 0-1.098-1.268c-.47-.296-1.037-.444-1.699-.444a3.32 3.32 0 0 0-1.711.444 3.097 3.097 0 0 0-1.19 1.268c-.287.54-.431 1.176-.431 1.907 0 .724.144 1.359.431 1.908.288.54.684.958 1.19 1.255a3.32 3.32 0 0 0 1.711.444c.662 0 1.229-.144 1.699-.431a2.85 2.85 0 0 0 1.098-1.268h1.424c-.34.871-.88 1.546-1.62 2.026-.741.47-1.608.705-2.601.705a4.637 4.637 0 0 1-2.313-.588 4.402 4.402 0 0 1-1.633-1.659c-.401-.706-.601-1.503-.601-2.392Zm10.891-3.763a.78.78 0 0 1-.575-.235.78.78 0 0 1-.235-.575c0-.226.078-.418.235-.575a.78.78 0 0 1 .575-.235c.217 0 .4.078.549.235a.786.786 0 0 1 .235.575.785.785 0 0 1-.235.575.727.727 0 0 1-.549.235Zm.575 1.163v7.161h-1.189v-7.161h1.189Zm2.954 1.163c.209-.409.505-.727.889-.954.392-.226.866-.339 1.424-.339v1.228h-.314c-1.333 0-1.999.723-1.999 2.169v3.894h-1.189v-7.161h1.189v1.163Zm3.803 6.076a.782.782 0 0 1-.575-.235.78.78 0 0 1-.235-.575c0-.226.078-.418.235-.575a.782.782 0 0 1 .575-.235c.218 0 .401.078.549.235a.782.782 0 0 1 .235.575.78.78 0 0 1-.235.575.724.724 0 0 1-.549.235Zm8.213.013c-.601 0-1.141-.104-1.62-.313a2.77 2.77 0 0 1-1.111-.889 2.309 2.309 0 0 1-.418-1.32h1.268c.043.427.218.789.522 1.085.314.287.767.431 1.359.431.567 0 1.011-.139 1.333-.418a1.39 1.39 0 0 0 .497-1.098c0-.348-.096-.631-.288-.849a1.84 1.84 0 0 0-.718-.497 11.264 11.264 0 0 0-1.163-.365 10.577 10.577 0 0 1-1.451-.471 2.409 2.409 0 0 1-.928-.732c-.252-.339-.378-.792-.378-1.358 0-.497.126-.937.378-1.32.253-.384.606-.68 1.059-.889.462-.209.989-.313 1.581-.313.854 0 1.551.213 2.091.64.548.427.858.993.927 1.699h-1.306c-.044-.349-.227-.654-.549-.915-.322-.27-.749-.405-1.281-.405-.496 0-.901.131-1.215.392-.313.252-.47.61-.47 1.071 0 .331.091.601.274.81.192.21.423.371.693.484.278.104.666.226 1.163.366.601.165 1.084.331 1.45.496.366.157.68.405.941.745.261.331.392.784.392 1.359 0 .444-.118.863-.353 1.255-.235.392-.584.709-1.045.953-.462.244-1.006.366-1.634.366Zm8.075-7.382c.54 0 1.027.117 1.463.352.436.227.775.571 1.019 1.033.253.461.379 1.023.379 1.685v4.221h-1.176v-4.051c0-.714-.178-1.259-.536-1.633-.357-.384-.845-.575-1.463-.575-.627 0-1.128.196-1.503.588-.366.392-.549.962-.549 1.712v3.959h-1.189v-9.67h1.189v3.528c.236-.365.558-.649.967-.849.419-.2.885-.3 1.399-.3Zm5.156-1.033a.782.782 0 0 1-.575-.235.785.785 0 0 1-.235-.575c0-.226.079-.418.235-.575a.782.782 0 0 1 .575-.235c.218 0 .401.078.549.235a.782.782 0 0 1 .235.575.78.78 0 0 1-.235.575.724.724 0 0 1-.549.235Zm.575 1.163v7.161h-1.189v-7.161h1.189Zm2.955-2.509v9.67h-1.189v-9.67h1.189Zm4.888 9.787a3.704 3.704 0 0 1-1.83-.457 3.325 3.325 0 0 1-1.28-1.294c-.305-.566-.457-1.219-.457-1.96 0-.731.156-1.376.47-1.933a3.266 3.266 0 0 1 1.307-1.294 3.728 3.728 0 0 1 1.842-.457c.68 0 1.294.152 1.843.457.548.296.98.723 1.293 1.28.322.558.484 1.207.484 1.947 0 .741-.166 1.394-.497 1.96a3.358 3.358 0 0 1-1.32 1.294 3.8 3.8 0 0 1-1.855.457Zm0-1.045c.427 0 .827-.1 1.202-.3a2.25 2.25 0 0 0 .902-.902c.235-.401.352-.889.352-1.464s-.113-1.062-.339-1.463a2.186 2.186 0 0 0-.889-.889 2.44 2.44 0 0 0-1.189-.3c-.436 0-.836.1-1.202.3a2.13 2.13 0 0 0-.863.889c-.217.401-.326.888-.326 1.463 0 .584.104 1.076.313 1.477.218.401.506.701.863.902.357.191.749.287 1.176.287Zm8.528-6.363c.54 0 1.028.117 1.463.352.436.227.776.571 1.02 1.033.252.461.379 1.023.379 1.685v4.221h-1.176v-4.051c0-.714-.179-1.259-.536-1.633-.357-.384-.845-.575-1.464-.575-.627 0-1.128.196-1.502.588-.366.392-.549.962-.549 1.712v3.959h-1.189v-9.67h1.189v3.528a2.35 2.35 0 0 1 .967-.849c.418-.2.884-.3 1.398-.3Zm5.771 5.644-1.464 3.515h-.797l.954-3.515h1.307Zm11.34-7.461v9.108h-1.189v-4.129h-4.639v4.129h-1.189v-9.108h1.189v3.999h4.639v-3.999h1.189Zm1.325 5.501c0-.731.148-1.372.444-1.92a3.224 3.224 0 0 1 1.215-1.294 3.386 3.386 0 0 1 1.738-.457c.627 0 1.172.135 1.633.405.462.27.806.609 1.033 1.019v-1.307h1.202v7.161h-1.202V110.8c-.236.418-.588.767-1.059 1.045-.462.27-1.002.405-1.62.405a3.243 3.243 0 0 1-1.725-.47 3.302 3.302 0 0 1-1.215-1.32c-.296-.566-.444-1.211-.444-1.934Zm6.063.013c0-.54-.109-1.01-.327-1.411a2.245 2.245 0 0 0-.889-.914 2.327 2.327 0 0 0-1.215-.327c-.444 0-.849.104-1.215.313-.366.21-.658.514-.876.915-.217.401-.326.871-.326 1.411 0 .549.109 1.028.326 1.438.218.4.51.71.876.927.366.21.771.314 1.215.314.444 0 .85-.104 1.215-.314.375-.217.671-.527.889-.927.218-.41.327-.884.327-1.425Zm12.489-3.567-2.235 7.161h-1.228l-1.725-5.684-1.725 5.684h-1.228l-2.247-7.161h1.215l1.646 6.011 1.777-6.011h1.215l1.738 6.024 1.621-6.024h1.176Zm.474 3.554c0-.731.148-1.372.444-1.92a3.233 3.233 0 0 1 1.216-1.294 3.383 3.383 0 0 1 1.738-.457c.627 0 1.171.135 1.633.405.462.27.806.609 1.032 1.019v-1.307h1.202v7.161h-1.202V110.8c-.235.418-.588.767-1.058 1.045-.462.27-1.002.405-1.621.405-.635 0-1.21-.156-1.724-.47a3.311 3.311 0 0 1-1.216-1.32c-.296-.566-.444-1.211-.444-1.934Zm6.063.013c0-.54-.109-1.01-.327-1.411a2.236 2.236 0 0 0-.888-.914 2.33 2.33 0 0 0-1.215-.327c-.445 0-.85.104-1.215.313-.366.21-.658.514-.876.915-.218.401-.327.871-.327 1.411 0 .549.109 1.028.327 1.438.218.4.51.71.876.927.365.21.77.314 1.215.314.444 0 .849-.104 1.215-.314.375-.217.671-.527.888-.927.218-.41.327-.884.327-1.425Zm3.565-4.73a.78.78 0 0 1-.575-.235.782.782 0 0 1-.236-.575c0-.226.079-.418.236-.575a.78.78 0 0 1 .575-.235c.217 0 .4.078.548.235a.783.783 0 0 1 .236.575.782.782 0 0 1-.236.575.723.723 0 0 1-.548.235Zm.574 1.163v7.161h-1.189v-7.161h1.189Zm2.38-1.163a.78.78 0 0 1-.575-.235.78.78 0 0 1-.235-.575c0-.226.078-.418.235-.575a.78.78 0 0 1 .575-.235c.218 0 .401.078.549.235a.786.786 0 0 1 .235.575.785.785 0 0 1-.235.575.724.724 0 0 1-.549.235Zm.575 1.163v7.161h-1.189v-7.161h1.189Zm6.516 2.248c-.488-.192-.862-.471-1.124-.837-.261-.365-.392-.81-.392-1.332 0-.471.118-.893.353-1.268.235-.383.584-.684 1.046-.902.47-.226 1.036-.339 1.698-.339.662 0 1.224.113 1.686.339.47.218.823.519 1.058.902.244.375.366.797.366 1.268 0 .505-.135.949-.405 1.332-.27.375-.64.654-1.111.837.541.165.967.457 1.281.875.322.41.483.906.483 1.49 0 .566-.139 1.063-.418 1.489-.278.419-.675.745-1.189.98-.505.227-1.089.34-1.751.34-.662 0-1.245-.113-1.751-.34a2.8 2.8 0 0 1-1.163-.98c-.278-.426-.418-.923-.418-1.489 0-.584.157-1.085.471-1.503.313-.418.74-.706 1.28-.862Zm3.541-2.026c0-.531-.174-.94-.522-1.228-.349-.287-.828-.431-1.438-.431-.601 0-1.076.144-1.424.431-.348.288-.523.701-.523 1.241 0 .488.179.88.536 1.176.366.297.836.445 1.411.445.584 0 1.054-.148 1.411-.445.366-.304.549-.701.549-1.189Zm-1.96 2.548c-.644 0-1.171.153-1.581.458-.409.296-.614.745-.614 1.346 0 .557.196 1.006.588 1.345.401.34.937.51 1.607.51.671 0 1.202-.17 1.594-.51.392-.339.588-.788.588-1.345 0-.584-.2-1.028-.601-1.333-.4-.314-.927-.471-1.581-.471Zm4.363-3.972v-1.085h2.456v9.448h-1.202v-8.363h-1.254Zm4.237 3.541c0-1.498.244-2.665.732-3.502.488-.845 1.342-1.267 2.561-1.267 1.211 0 2.061.422 2.548 1.267.488.837.732 2.004.732 3.502 0 1.525-.244 2.709-.732 3.554-.487.845-1.337 1.268-2.548 1.268-1.219 0-2.073-.423-2.561-1.268s-.732-2.029-.732-3.554Zm5.397 0c0-.758-.052-1.398-.157-1.921-.096-.531-.3-.958-.614-1.28-.305-.323-.749-.484-1.333-.484-.592 0-1.045.161-1.359.484-.305.322-.509.749-.614 1.28-.096.523-.143 1.163-.143 1.921 0 .784.047 1.442.143 1.973.105.532.309.958.614 1.281.314.322.767.483 1.359.483.584 0 1.028-.161 1.333-.483.314-.323.518-.749.614-1.281.105-.531.157-1.189.157-1.973Zm7.813-2.378c-.191-.967-.788-1.45-1.79-1.45-.775 0-1.355.3-1.738.901-.383.593-.57 1.573-.562 2.94.201-.453.532-.806.993-1.058a3.168 3.168 0 0 1 1.568-.392c.898 0 1.612.279 2.143.836.54.558.81 1.329.81 2.313 0 .592-.117 1.124-.352 1.594-.227.47-.575.845-1.046 1.124-.461.279-1.023.418-1.685.418-.898 0-1.599-.2-2.104-.601-.505-.401-.858-.954-1.059-1.66-.2-.705-.3-1.576-.3-2.613 0-3.197 1.115-4.796 3.345-4.796.854 0 1.525.231 2.012.693.488.462.776 1.045.863 1.751H408.9Zm-1.777 1.947c-.375 0-.727.078-1.058.235a1.89 1.89 0 0 0-.811.693c-.2.305-.3.679-.3 1.123 0 .662.192 1.203.575 1.621.383.409.932.614 1.646.614.61 0 1.094-.187 1.451-.562.366-.383.549-.897.549-1.542 0-.679-.175-1.211-.523-1.594-.349-.392-.858-.588-1.529-.588Zm4.518-1.816c.061-.802.37-1.429.928-1.882.557-.453 1.28-.679 2.169-.679.592 0 1.102.108 1.529.326.435.209.762.497.98.863.226.366.34.779.34 1.241 0 .54-.157 1.006-.471 1.398a2.052 2.052 0 0 1-1.202.758v.065c.566.14 1.015.414 1.346.824.331.409.496.945.496 1.607 0 .496-.113.945-.339 1.346-.227.392-.567.701-1.02.927-.453.227-.997.34-1.633.34-.923 0-1.681-.239-2.274-.719-.592-.487-.923-1.176-.993-2.064h1.15c.061.523.275.949.641 1.28.365.331.853.497 1.463.497.61 0 1.072-.157 1.385-.47.322-.323.484-.737.484-1.242 0-.653-.218-1.124-.654-1.411-.435-.287-1.093-.431-1.973-.431h-.3v-.993h.313c.802-.009 1.407-.14 1.817-.392.409-.262.614-.662.614-1.202 0-.462-.153-.832-.458-1.111-.296-.279-.723-.418-1.28-.418-.54 0-.976.139-1.307.418-.331.279-.527.653-.588 1.124h-1.163Z" fill="#8991A5"/><path d="M132.139 85.862V75h-10.277v10.862H111v10.277h10.862V107h10.277V96.139H143V85.862h-10.861Z" fill="#74B9F9"/></g><circle cx="265" cy="252" r="37" fill="#74B9F9" fill-opacity=".1"/><circle cx="264.999" cy="251.995" r="26.429" fill="#74B9F9" fill-opacity=".1"/><circle cx="265.002" cy="252.002" r="15.857" fill="#74B9F9"/><path d="M265 137v74" stroke="#74B9F9" stroke-width="2" stroke-dasharray="2 2"/></g><defs><linearGradient id="Z" x1="50.72" y1="545.982" x2="108.163" y2="545.982" gradientUnits="userSpaceOnUse"><stop stop-color="#E8E9E9"/><stop offset=".01" stop-color="#F0F2F2"/><stop offset=".4" stop-color="#E7E8E8"/><stop offset=".96" stop-color="#D2D2D1"/><stop offset=".98" stop-color="#D0D0CF"/><stop offset=".99" stop-color="#C9CAC8"/><stop offset="1" stop-color="#B4B7B3"/></linearGradient><linearGradient id="aZ" x1="90.829" y1="522.009" x2="90.829" y2="515.197" gradientUnits="userSpaceOnUse"><stop stop-color="gray"/><stop offset=".16" stop-color="#858585"/><stop offset=".36" stop-color="#939393"/><stop offset=".57" stop-color="#AAABAA"/><stop offset=".78" stop-color="#CACCCB"/><stop offset="1" stop-color="#F2F4F3"/></linearGradient><linearGradient id="f" x1="119.005" y1="472.895" x2="101.848" y2="472.895" gradientUnits="userSpaceOnUse"><stop offset=".01" stop-color="#DADCDB"/><stop offset=".02" stop-color="#E0E3E2"/><stop offset=".03" stop-color="#E2E5E4"/><stop offset=".17" stop-color="#DADBDA"/><stop offset=".38" stop-color="#D4D4D3"/><stop offset=".91" stop-color="#D2D2D1"/><stop offset=".95" stop-color="#D0D0CF"/><stop offset=".96" stop-color="#C9CAC8"/><stop offset=".98" stop-color="#B4B7B3"/><stop offset=".99" stop-color="#ADB1AD"/></linearGradient><linearGradient id="g" x1="110.342" y1="488.041" x2="110.342" y2="470.463" gradientUnits="userSpaceOnUse"><stop stop-color="gray"/><stop offset=".54" stop-color="#C6C6C6"/><stop offset="1" stop-color="#fff"/></linearGradient><linearGradient id="i" x1="112.438" y1="472.314" x2="116.727" y2="472.314" gradientUnits="userSpaceOnUse"><stop offset=".5" stop-color="#ACACAC"/><stop offset=".52" stop-color="#B4B4B4"/><stop offset=".65" stop-color="#D4D4D4"/><stop offset=".78" stop-color="#ECECEC"/><stop offset=".9" stop-color="#FAFAFA"/><stop offset="1" stop-color="#fff"/></linearGradient><linearGradient id="j" x1="39.949" y1="472.895" x2="57.022" y2="472.895" gradientUnits="userSpaceOnUse"><stop offset=".01" stop-color="#DADCDB"/><stop offset=".02" stop-color="#E0E3E2"/><stop offset=".03" stop-color="#E2E5E4"/><stop offset=".17" stop-color="#DADBDA"/><stop offset=".38" stop-color="#D4D4D3"/><stop offset=".91" stop-color="#D2D2D1"/><stop offset=".95" stop-color="#D0D0CF"/><stop offset=".96" stop-color="#C9CAC8"/><stop offset=".98" stop-color="#B4B7B3"/><stop offset=".99" stop-color="#ADB1AD"/></linearGradient><linearGradient id="k" x1="48.528" y1="488.041" x2="48.528" y2="470.463" gradientUnits="userSpaceOnUse"><stop stop-color="gray"/><stop offset=".54" stop-color="#C6C6C6"/><stop offset="1" stop-color="#fff"/></linearGradient><linearGradient id="m" x1="119.005" y1="575.331" x2="101.848" y2="575.331" gradientUnits="userSpaceOnUse"><stop offset=".01" stop-color="#DADCDB"/><stop offset=".02" stop-color="#E0E3E2"/><stop offset=".03" stop-color="#E2E5E4"/><stop offset=".17" stop-color="#DADBDA"/><stop offset=".38" stop-color="#D4D4D3"/><stop offset=".91" stop-color="#D2D2D1"/><stop offset=".95" stop-color="#D0D0CF"/><stop offset=".96" stop-color="#C9CAC8"/><stop offset=".98" stop-color="#B4B7B3"/><stop offset=".99" stop-color="#ADB1AD"/></linearGradient><linearGradient id="n" x1="110.342" y1="590.478" x2="110.342" y2="572.901" gradientUnits="userSpaceOnUse"><stop stop-color="gray"/><stop offset=".54" stop-color="#C6C6C6"/><stop offset="1" stop-color="#fff"/></linearGradient><linearGradient id="p" x1="112.438" y1="574.832" x2="116.727" y2="574.832" gradientUnits="userSpaceOnUse"><stop offset=".5" stop-color="#ACACAC"/><stop offset=".52" stop-color="#B4B4B4"/><stop offset=".65" stop-color="#D4D4D4"/><stop offset=".78" stop-color="#ECECEC"/><stop offset=".9" stop-color="#FAFAFA"/><stop offset="1" stop-color="#fff"/></linearGradient><linearGradient id="q" x1="39.949" y1="575.331" x2="57.022" y2="575.331" gradientUnits="userSpaceOnUse"><stop offset=".01" stop-color="#DADCDB"/><stop offset=".02" stop-color="#E0E3E2"/><stop offset=".03" stop-color="#E2E5E4"/><stop offset=".17" stop-color="#DADBDA"/><stop offset=".38" stop-color="#D4D4D3"/><stop offset=".91" stop-color="#D2D2D1"/><stop offset=".95" stop-color="#D0D0CF"/><stop offset=".96" stop-color="#C9CAC8"/><stop offset=".98" stop-color="#B4B7B3"/><stop offset=".99" stop-color="#ADB1AD"/></linearGradient><linearGradient id="r" x1="48.528" y1="590.478" x2="48.528" y2="572.901" gradientUnits="userSpaceOnUse"><stop stop-color="gray"/><stop offset=".54" stop-color="#C6C6C6"/><stop offset="1" stop-color="#fff"/></linearGradient><linearGradient id="t" x1="41.381" y1="516.633" x2="117.495" y2="516.633" gradientUnits="userSpaceOnUse"><stop offset=".01" stop-color="#DADCDB"/><stop offset=".02" stop-color="#E0E3E2"/><stop offset=".03" stop-color="#E2E5E4"/><stop offset=".17" stop-color="#DADBDA"/><stop offset=".38" stop-color="#D4D4D3"/><stop offset=".91" stop-color="#D2D2D1"/><stop offset=".95" stop-color="#D0D0CF"/><stop offset=".96" stop-color="#C9CAC8"/><stop offset=".98" stop-color="#B4B7B3"/><stop offset=".99" stop-color="#ADB1AD"/></linearGradient><linearGradient id="u" x1="132.974" y1="572.392" x2="81.671" y2="541.694" gradientUnits="userSpaceOnUse"><stop stop-color="#A2A2A2"/><stop offset=".08" stop-color="#B8B8B8"/><stop offset=".21" stop-color="#D2D2D2"/><stop offset=".34" stop-color="#E6E6E6"/><stop offset=".5" stop-color="#F4F4F4"/><stop offset=".68" stop-color="#FCFCFC"/><stop offset="1" stop-color="#fff"/></linearGradient><linearGradient id="v" x1="44.074" y1="495.869" x2="50.214" y2="495.869" gradientUnits="userSpaceOnUse"><stop stop-color="#010101"/><stop offset=".23" stop-color="#080808"/><stop offset=".56" stop-color="#1C1C1C"/><stop offset=".96" stop-color="#3C3C3C"/><stop offset="1" stop-color="#404040"/></linearGradient><linearGradient id="w" x1="108.661" y1="495.869" x2="114.885" y2="495.869" gradientUnits="userSpaceOnUse"><stop stop-color="#010101"/><stop offset=".23" stop-color="#080808"/><stop offset=".56" stop-color="#1C1C1C"/><stop offset=".96" stop-color="#3C3C3C"/><stop offset="1" stop-color="#404040"/></linearGradient><linearGradient id="x" x1="45.916" y1="473.058" x2="112.947" y2="473.058" gradientUnits="userSpaceOnUse"><stop stop-color="#242424"/><stop offset=".29" stop-color="#141414"/><stop offset=".67" stop-color="#060606"/><stop offset="1" stop-color="#010101"/></linearGradient><linearGradient id="y" x1="45.914" y1="432.026" x2="60.548" y2="432.026" gradientUnits="userSpaceOnUse"><stop stop-color="#5A5A57"/><stop offset=".14" stop-color="#636360"/><stop offset=".37" stop-color="#7C7C7A"/><stop offset=".67" stop-color="#A4A4A3"/><stop offset=".99" stop-color="#D9D9D8"/></linearGradient><linearGradient id="z" x1="98.316" y1="432.026" x2="112.95" y2="432.026" gradientUnits="userSpaceOnUse"><stop stop-color="#5A5A57"/><stop offset=".14" stop-color="#636360"/><stop offset=".37" stop-color="#7C7C7A"/><stop offset=".67" stop-color="#A4A4A3"/><stop offset=".99" stop-color="#D9D9D8"/></linearGradient><linearGradient id="C" x1="45.916" y1="473.057" x2="81.156" y2="473.057" gradientUnits="userSpaceOnUse"><stop stop-color="#F2F4F3"/><stop offset=".23" stop-color="#EFF1F0"/><stop offset=".39" stop-color="#E7E8E7"/><stop offset=".51" stop-color="#DCDCDB"/><stop offset=".6" stop-color="#D7D7D6"/><stop offset=".71" stop-color="#C9C9C8"/><stop offset=".82" stop-color="#B2B2B2"/><stop offset=".94" stop-color="#929292"/><stop offset="1" stop-color="gray"/></linearGradient><linearGradient id="H" x1="45.914" y1="432.188" x2="58.277" y2="432.188" gradientUnits="userSpaceOnUse"><stop stop-color="#535350"/><stop offset=".26" stop-color="#5C5C59"/><stop offset=".68" stop-color="#757572"/><stop offset=".99" stop-color="#8C8C89"/></linearGradient><linearGradient id="I" x1="45.914" y1="432.943" x2="57.689" y2="432.943" gradientUnits="userSpaceOnUse"><stop stop-color="#5A5A57"/><stop offset=".14" stop-color="#636360"/><stop offset=".37" stop-color="#7C7C7A"/><stop offset=".67" stop-color="#A4A4A3"/><stop offset=".99" stop-color="#D9D9D8"/></linearGradient><linearGradient id="J" x1="47.115" y1="429.69" x2="50.134" y2="428.974" gradientUnits="userSpaceOnUse"><stop stop-color="#535350"/><stop offset=".26" stop-color="#5C5C59"/><stop offset=".68" stop-color="#757572"/><stop offset=".99" stop-color="#8C8C89"/></linearGradient><linearGradient id="K" x1="51.766" y1="430.51" x2="54.116" y2="429.592" gradientUnits="userSpaceOnUse"><stop stop-color="#535350"/><stop offset=".26" stop-color="#5C5C59"/><stop offset=".68" stop-color="#757572"/><stop offset=".99" stop-color="#8C8C89"/></linearGradient><linearGradient id="M" x1="45.914" y1="433.539" x2="57.268" y2="433.539" gradientUnits="userSpaceOnUse"><stop stop-color="#535350"/><stop offset=".26" stop-color="#5C5C59"/><stop offset=".68" stop-color="#757572"/><stop offset=".99" stop-color="#8C8C89"/></linearGradient><linearGradient id="N" x1="113.203" y1="432.188" x2="100.84" y2="432.188" gradientUnits="userSpaceOnUse"><stop stop-color="#535350"/><stop offset=".26" stop-color="#5C5C59"/><stop offset=".68" stop-color="#757572"/><stop offset=".99" stop-color="#8C8C89"/></linearGradient><linearGradient id="O" x1="113.208" y1="432.943" x2="101.349" y2="432.943" gradientUnits="userSpaceOnUse"><stop stop-color="#5A5A57"/><stop offset=".14" stop-color="#636360"/><stop offset=".37" stop-color="#7C7C7A"/><stop offset=".67" stop-color="#A4A4A3"/><stop offset=".99" stop-color="#D9D9D8"/></linearGradient><linearGradient id="P" x1="142.839" y1="404.115" x2="139.82" y2="403.399" gradientUnits="userSpaceOnUse"><stop stop-color="#535350"/><stop offset=".26" stop-color="#5C5C59"/><stop offset=".68" stop-color="#757572"/><stop offset=".99" stop-color="#8C8C89"/></linearGradient><linearGradient id="Q" x1="133.591" y1="471.411" x2="131.245" y2="470.503" gradientUnits="userSpaceOnUse"><stop stop-color="#535350"/><stop offset=".26" stop-color="#5C5C59"/><stop offset=".68" stop-color="#757572"/><stop offset=".99" stop-color="#8C8C89"/></linearGradient><linearGradient id="S" x1="113.202" y1="433.539" x2="101.848" y2="433.539" gradientUnits="userSpaceOnUse"><stop stop-color="#535350"/><stop offset=".26" stop-color="#5C5C59"/><stop offset=".68" stop-color="#757572"/><stop offset=".99" stop-color="#8C8C89"/></linearGradient><linearGradient id="T" x1="45.422" y1="443.291" x2="113.462" y2="443.291" gradientUnits="userSpaceOnUse"><stop offset=".01" stop-color="#E9EBEA"/><stop offset=".02" stop-color="#F0F2F1"/><stop offset=".03" stop-color="#F2F4F3"/><stop offset=".42" stop-color="#EFF1F0"/><stop offset=".71" stop-color="#E7E8E7"/><stop offset=".9" stop-color="#DCDCDB"/><stop offset=".93" stop-color="#D7D8D6"/><stop offset=".97" stop-color="#C9CBC9"/><stop offset="1" stop-color="#B7BBB7"/></linearGradient><linearGradient id="U" x1="45.422" y1="443.301" x2="79.484" y2="443.301" gradientUnits="userSpaceOnUse"><stop offset=".17" stop-color="#808280"/><stop offset=".19" stop-color="#929492"/><stop offset=".23" stop-color="#B2B3B2"/><stop offset=".27" stop-color="#C9CAC8"/><stop offset=".31" stop-color="#D7D7D6"/><stop offset=".34" stop-color="#DCDCDB"/><stop offset=".4" stop-color="#E3E3E3"/><stop offset=".56" stop-color="#F3F3F3"/><stop offset=".75" stop-color="#FCFCFC"/><stop offset="1" stop-color="#fff"/></linearGradient><linearGradient id="V" x1="62.324" y1="425.71" x2="96.386" y2="425.71" gradientUnits="userSpaceOnUse"><stop offset=".01" stop-color="#CECECD"/><stop offset=".06" stop-color="#DEDFDE"/><stop offset=".11" stop-color="#E9EBEA"/><stop offset=".19" stop-color="#F0F2F1"/><stop offset=".39" stop-color="#F2F4F3"/><stop offset=".62" stop-color="#EFF1F0"/><stop offset=".78" stop-color="#E7E8E7"/><stop offset=".9" stop-color="#DCDCDB"/><stop offset=".93" stop-color="#D7D8D6"/><stop offset=".97" stop-color="#C9CBC9"/><stop offset="1" stop-color="#B7BBB7"/></linearGradient><linearGradient id="W" x1="63.58" y1="424.885" x2="95.203" y2="424.885" gradientUnits="userSpaceOnUse"><stop offset=".01" stop-color="#CECECD"/><stop offset=".06" stop-color="#DEDFDE"/><stop offset=".11" stop-color="#E9EBEA"/><stop offset=".19" stop-color="#F0F2F1"/><stop offset=".39" stop-color="#F2F4F3"/><stop offset=".62" stop-color="#EFF1F0"/><stop offset=".78" stop-color="#E7E8E7"/><stop offset=".9" stop-color="#DCDCDB"/><stop offset=".93" stop-color="#D7D8D6"/><stop offset=".97" stop-color="#C9CBC9"/><stop offset="1" stop-color="#B7BBB7"/></linearGradient><linearGradient id="X" x1="64.59" y1="424.21" x2="94.194" y2="424.21" gradientUnits="userSpaceOnUse"><stop offset=".01" stop-color="#CECECD"/><stop offset=".06" stop-color="#DEDFDE"/><stop offset=".11" stop-color="#E9EBEA"/><stop offset=".19" stop-color="#F0F2F1"/><stop offset=".39" stop-color="#F2F4F3"/><stop offset=".62" stop-color="#EFF1F0"/><stop offset=".78" stop-color="#E7E8E7"/><stop offset=".9" stop-color="#DCDCDB"/><stop offset=".93" stop-color="#D7D8D6"/><stop offset=".97" stop-color="#C9CBC9"/><stop offset="1" stop-color="#B7BBB7"/></linearGradient><linearGradient id="Y" x1="44.325" y1="607.041" x2="114.383" y2="607.041" gradientUnits="userSpaceOnUse"><stop offset=".17" stop-color="#D4D4D4"/><stop offset=".21" stop-color="#E6E6E6"/><stop offset=".25" stop-color="#F4F4F4"/><stop offset=".3" stop-color="#FCFCFC"/><stop offset=".39" stop-color="#fff"/><stop offset="1" stop-color="#D7D7D7"/></linearGradient><linearGradient id="e" x1="97.962" y1="613.277" x2="108.727" y2="611.3" gradientUnits="userSpaceOnUse"><stop stop-color="#E00000"/><stop offset=".25" stop-color="#C10000"/><stop offset=".56" stop-color="#9F0000"/><stop offset=".83" stop-color="#8B0000"/><stop offset="1" stop-color="#830000"/></linearGradient><linearGradient id="d" x1="72.253" y1="609.611" x2="83.022" y2="611.242" gradientUnits="userSpaceOnUse"><stop stop-color="#E00000"/><stop offset=".25" stop-color="#C10000"/><stop offset=".56" stop-color="#9F0000"/><stop offset=".83" stop-color="#8B0000"/><stop offset="1" stop-color="#830000"/></linearGradient><linearGradient id="am" x1="79.555" y1="494.09" x2="81.657" y2="494.09" gradientUnits="userSpaceOnUse"><stop stop-color="#242424"/><stop offset=".29" stop-color="#141414"/><stop offset=".67" stop-color="#060606"/><stop offset="1" stop-color="#010101"/></linearGradient><linearGradient id="an" x1="79.555" y1="494.929" x2="81.657" y2="494.929" gradientUnits="userSpaceOnUse"><stop stop-color="#010101"/><stop offset=".33" stop-color="#060606"/><stop offset=".71" stop-color="#141414"/><stop offset="1" stop-color="#242424"/></linearGradient><linearGradient id="ao" x1="45.245" y1="445.478" x2="59.375" y2="445.478" gradientUnits="userSpaceOnUse"><stop stop-color="#F2F4F3"/><stop offset=".22" stop-color="#CACCCB"/><stop offset=".43" stop-color="#AAABAA"/><stop offset=".64" stop-color="#939393"/><stop offset=".84" stop-color="#858585"/><stop offset="1" stop-color="gray"/></linearGradient><linearGradient id="ap" x1="113.626" y1="445.48" x2="99.412" y2="445.48" gradientUnits="userSpaceOnUse"><stop stop-color="#F2F4F3"/><stop offset=".22" stop-color="#CACCCB"/><stop offset=".43" stop-color="#AAABAA"/><stop offset=".64" stop-color="#939393"/><stop offset=".84" stop-color="#858585"/><stop offset="1" stop-color="gray"/></linearGradient><linearGradient id="av" x1="39.445" y1="475.343" x2="41.295" y2="476.521" gradientUnits="userSpaceOnUse"><stop stop-color="#242424"/><stop offset=".29" stop-color="#151515"/><stop offset=".67" stop-color="#060606"/><stop offset="1" stop-color="#010101"/></linearGradient><linearGradient id="aw" x1="35.91" y1="474.585" x2="38.854" y2="476.604" gradientUnits="userSpaceOnUse"><stop offset=".01" stop-color="#C0C0BF"/><stop offset=".02" stop-color="#C8C9C8"/><stop offset=".05" stop-color="#D9DAD9"/><stop offset=".09" stop-color="#E4E6E5"/><stop offset=".15" stop-color="#EBEDEC"/><stop offset=".29" stop-color="#EDEFEE"/><stop offset=".53" stop-color="#EAECEB"/><stop offset=".68" stop-color="#E2E4E3"/><stop offset=".81" stop-color="#D3D6D4"/><stop offset=".93" stop-color="#BFC2BF"/><stop offset="1" stop-color="#ADB1AD"/></linearGradient><linearGradient id="ax" x1="33.222" y1="478.53" x2="41.38" y2="478.53" gradientUnits="userSpaceOnUse"><stop stop-color="#5A5A57"/><stop offset=".14" stop-color="#636360"/><stop offset=".37" stop-color="#7C7C7A"/><stop offset=".67" stop-color="#A4A4A3"/><stop offset=".99" stop-color="#D9D9D8"/></linearGradient><linearGradient id="ay" x1="119.514" y1="475.423" x2="117.664" y2="476.601" gradientUnits="userSpaceOnUse"><stop stop-color="#242424"/><stop offset=".29" stop-color="#151515"/><stop offset=".67" stop-color="#060606"/><stop offset="1" stop-color="#010101"/></linearGradient><linearGradient id="az" x1="123.036" y1="474.585" x2="120.009" y2="476.604" gradientUnits="userSpaceOnUse"><stop offset=".01" stop-color="#C0C0BF"/><stop offset=".02" stop-color="#C8C9C8"/><stop offset=".05" stop-color="#D9DAD9"/><stop offset=".09" stop-color="#E4E6E5"/><stop offset=".15" stop-color="#EBEDEC"/><stop offset=".29" stop-color="#EDEFEE"/><stop offset=".53" stop-color="#EAECEB"/><stop offset=".68" stop-color="#E2E4E3"/><stop offset=".81" stop-color="#D3D6D4"/><stop offset=".93" stop-color="#BFC2BF"/><stop offset="1" stop-color="#ADB1AD"/></linearGradient><linearGradient id="aA" x1="125.734" y1="478.53" x2="117.492" y2="478.53" gradientUnits="userSpaceOnUse"><stop stop-color="#5A5A57"/><stop offset=".14" stop-color="#636360"/><stop offset=".37" stop-color="#7C7C7A"/><stop offset=".67" stop-color="#A4A4A3"/><stop offset=".99" stop-color="#D9D9D8"/></linearGradient><linearGradient id="aB" x1="62.396" y1="456.71" x2="70.804" y2="456.122" gradientUnits="userSpaceOnUse"><stop/><stop offset=".36" stop-color="#222"/><stop offset=".7" stop-color="#3C3C3C"/><stop offset=".9" stop-color="#454545"/></linearGradient><linearGradient id="aC" x1="59.698" y1="461.372" x2="83.66" y2="458.951" gradientUnits="userSpaceOnUse"><stop stop-color="#262626"/><stop offset=".54" stop-color="#3C3C3C"/><stop offset=".9" stop-color="#454545"/></linearGradient><linearGradient id="aD" x1="71.769" y1="459.303" x2="71.832" y2="459.885" gradientUnits="userSpaceOnUse"><stop stop-color="#9C9C9A"/><stop offset=".01" stop-color="#82827E"/><stop offset=".02" stop-color="#6D6D66"/><stop offset=".03" stop-color="#5D5D55"/><stop offset=".05" stop-color="#54544B"/><stop offset=".06" stop-color="#515148"/><stop offset=".07" stop-color="#55554C"/><stop offset=".12" stop-color="#7F817A"/><stop offset=".16" stop-color="#9EA19B"/><stop offset=".2" stop-color="#B0B4B0"/><stop offset=".23" stop-color="#B7BBB7"/><stop offset=".33" stop-color="#B0B3B0"/><stop offset=".72" stop-color="#9C9C9A"/><stop offset=".74" stop-color="#A3A3A1"/><stop offset=".78" stop-color="#B6B6B5"/><stop offset=".82" stop-color="#D6D6D5"/><stop offset=".84" stop-color="#E5E5E4"/><stop offset=".87" stop-color="#DFDFDE"/><stop offset=".91" stop-color="#CFCFCE"/><stop offset=".96" stop-color="#B4B4B2"/><stop offset=".99" stop-color="#9C9C9A"/></linearGradient><linearGradient id="aE" x1="75.302" y1="458.111" x2="82.923" y2="461.132" gradientUnits="userSpaceOnUse"><stop/><stop offset=".36" stop-color="#222"/><stop offset=".7" stop-color="#3C3C3C"/><stop offset=".9" stop-color="#454545"/></linearGradient><linearGradient id="aF" x1="79.14" y1="461.469" x2="102.075" y2="469.765" gradientUnits="userSpaceOnUse"><stop stop-color="#262626"/><stop offset=".54" stop-color="#3C3C3C"/><stop offset=".9" stop-color="#454545"/></linearGradient><linearGradient id="aG" x1="91.47" y1="464.498" x2="91.245" y2="465.132" gradientUnits="userSpaceOnUse"><stop stop-color="#9C9C9A"/><stop offset=".01" stop-color="#82827E"/><stop offset=".02" stop-color="#6D6D66"/><stop offset=".03" stop-color="#5D5D55"/><stop offset=".05" stop-color="#54544B"/><stop offset=".06" stop-color="#515148"/><stop offset=".07" stop-color="#55554C"/><stop offset=".12" stop-color="#7F817A"/><stop offset=".16" stop-color="#9EA19B"/><stop offset=".2" stop-color="#B0B4B0"/><stop offset=".23" stop-color="#B7BBB7"/><stop offset=".33" stop-color="#B0B3B0"/><stop offset=".72" stop-color="#9C9C9A"/><stop offset=".74" stop-color="#A3A3A1"/><stop offset=".78" stop-color="#B6B6B5"/><stop offset=".82" stop-color="#D6D6D5"/><stop offset=".84" stop-color="#E5E5E4"/><stop offset=".87" stop-color="#DFDFDE"/><stop offset=".91" stop-color="#CFCFCE"/><stop offset=".96" stop-color="#B4B4B2"/><stop offset=".99" stop-color="#9C9C9A"/></linearGradient><linearGradient id="aH" x1="118.34" y1="511.164" x2="117.078" y2="511.164" gradientUnits="userSpaceOnUse"><stop offset=".01" stop-color="#C0C0BF"/><stop offset=".07" stop-color="#EDEDEC"/><stop offset=".11" stop-color="#fff"/><stop offset=".13" stop-color="#F6F7F6"/><stop offset=".18" stop-color="#EFF1F0"/><stop offset=".29" stop-color="#EDEFEE"/><stop offset=".48" stop-color="#EAECEB"/><stop offset=".6" stop-color="#E2E4E3"/><stop offset=".7" stop-color="#D3D6D4"/><stop offset=".79" stop-color="#BFC2BF"/><stop offset=".85" stop-color="#ADB1AD"/><stop offset=".92" stop-color="#B0B4B0"/><stop offset=".97" stop-color="#B8BDB9"/><stop offset="1" stop-color="#BFC5C1"/></linearGradient><linearGradient id="aI" x1="40.538" y1="511.164" x2="41.799" y2="511.164" gradientUnits="userSpaceOnUse"><stop offset=".01" stop-color="#C0C0BF"/><stop offset=".07" stop-color="#EDEDEC"/><stop offset=".11" stop-color="#fff"/><stop offset=".13" stop-color="#F6F7F6"/><stop offset=".18" stop-color="#EFF1F0"/><stop offset=".29" stop-color="#EDEFEE"/><stop offset=".48" stop-color="#EAECEB"/><stop offset=".6" stop-color="#E2E4E3"/><stop offset=".7" stop-color="#D3D6D4"/><stop offset=".79" stop-color="#BFC2BF"/><stop offset=".85" stop-color="#ADB1AD"/><stop offset=".92" stop-color="#B0B4B0"/><stop offset=".97" stop-color="#B8BDB9"/><stop offset="1" stop-color="#BFC5C1"/></linearGradient><linearGradient id="aJ" x1="108.654" y1="495.869" x2="114.878" y2="495.869" gradientUnits="userSpaceOnUse"><stop stop-color="#2D2721"/><stop offset=".4" stop-color="#8A8A83"/><stop offset=".66" stop-color="#8D8D86"/><stop offset=".88" stop-color="#959591"/><stop offset=".99" stop-color="#9C9C9A"/></linearGradient><linearGradient id="aK" x1="44.068" y1="495.857" x2="50.208" y2="495.857" gradientUnits="userSpaceOnUse"><stop stop-color="#2D2721"/><stop offset=".4" stop-color="#8A8A83"/><stop offset=".66" stop-color="#8D8D86"/><stop offset=".88" stop-color="#959591"/><stop offset=".99" stop-color="#9C9C9A"/></linearGradient><linearGradient id="aL" x1="93.433" y1="518.822" x2="93.433" y2="522.271" gradientUnits="userSpaceOnUse"><stop stop-color="#fff"/><stop offset=".16" stop-color="#BDBDBD"/><stop offset="1" stop-color="#fff"/></linearGradient><linearGradient id="aM" x1="101.086" y1="517.044" x2="85.695" y2="517.044" gradientUnits="userSpaceOnUse"><stop stop-color="gray"/><stop offset=".16" stop-color="#858585"/><stop offset=".36" stop-color="#939393"/><stop offset=".57" stop-color="#AAABAA"/><stop offset=".78" stop-color="#CACCCB"/><stop offset="1" stop-color="#F2F4F3"/></linearGradient><linearGradient id="aN" x1="101.086" y1="520.424" x2="85.695" y2="520.424" gradientUnits="userSpaceOnUse"><stop stop-color="#F2F4F3"/><stop offset=".22" stop-color="#CACCCB"/><stop offset=".43" stop-color="#AAABAA"/><stop offset=".64" stop-color="#939393"/><stop offset=".84" stop-color="#858585"/><stop offset="1" stop-color="gray"/></linearGradient><linearGradient id="aO" x1="101.086" y1="517.642" x2="85.695" y2="517.642" gradientUnits="userSpaceOnUse"><stop stop-color="gray"/><stop offset=".16" stop-color="#858585"/><stop offset=".36" stop-color="#939393"/><stop offset=".57" stop-color="#AAABAA"/><stop offset=".78" stop-color="#CACCCB"/><stop offset="1" stop-color="#F2F4F3"/></linearGradient><linearGradient id="aP" x1="68.038" y1="518.822" x2="68.038" y2="522.271" gradientUnits="userSpaceOnUse"><stop stop-color="#fff"/><stop offset=".16" stop-color="#BDBDBD"/><stop offset="1" stop-color="#fff"/></linearGradient><linearGradient id="aQ" x1="60.301" y1="517.044" x2="75.692" y2="517.044" gradientUnits="userSpaceOnUse"><stop stop-color="gray"/><stop offset=".16" stop-color="#858585"/><stop offset=".36" stop-color="#939393"/><stop offset=".57" stop-color="#AAABAA"/><stop offset=".78" stop-color="#CACCCB"/><stop offset="1" stop-color="#F2F4F3"/></linearGradient><linearGradient id="aR" x1="60.301" y1="520.424" x2="75.692" y2="520.424" gradientUnits="userSpaceOnUse"><stop stop-color="#F2F4F3"/><stop offset=".22" stop-color="#CACCCB"/><stop offset=".43" stop-color="#AAABAA"/><stop offset=".64" stop-color="#939393"/><stop offset=".84" stop-color="#858585"/><stop offset="1" stop-color="gray"/></linearGradient><linearGradient id="aS" x1="60.301" y1="517.642" x2="75.692" y2="517.642" gradientUnits="userSpaceOnUse"><stop stop-color="gray"/><stop offset=".16" stop-color="#858585"/><stop offset=".36" stop-color="#939393"/><stop offset=".57" stop-color="#AAABAA"/><stop offset=".78" stop-color="#CACCCB"/><stop offset="1" stop-color="#F2F4F3"/></linearGradient><linearGradient id="aT" x1="75.695" y1="518.733" x2="85.704" y2="518.733" gradientUnits="userSpaceOnUse"><stop offset=".01" stop-color="#C0C0BF"/><stop offset=".02" stop-color="#C8C9C8"/><stop offset=".05" stop-color="#D9DAD9"/><stop offset=".09" stop-color="#E4E6E5"/><stop offset=".15" stop-color="#EBEDEC"/><stop offset=".29" stop-color="#EDEFEE"/><stop offset=".53" stop-color="#EAECEB"/><stop offset=".68" stop-color="#E2E4E3"/><stop offset=".81" stop-color="#D3D6D4"/><stop offset=".93" stop-color="#BFC2BF"/><stop offset="1" stop-color="#ADB1AD"/></linearGradient><linearGradient id="aU" x1="75.348" y1="518.733" x2="76.273" y2="518.733" gradientUnits="userSpaceOnUse"><stop stop-color="#fff"/><stop offset=".06" stop-color="#FAFAFA"/><stop offset=".14" stop-color="#ECEBEC"/><stop offset=".22" stop-color="#D5D3D5"/><stop offset=".3" stop-color="#B5B2B5"/><stop offset=".31" stop-color="#B2AFB2"/><stop offset=".32" stop-color="#B7B4B7"/><stop offset=".33" stop-color="#C4C1C4"/><stop offset=".34" stop-color="#D2D0D2"/><stop offset=".46" stop-color="#DEDDDE"/><stop offset=".79" stop-color="#F6F6F6"/><stop offset="1" stop-color="#fff"/></linearGradient><linearGradient id="aV" x1="86.043" y1="518.733" x2="85.034" y2="518.733" gradientUnits="userSpaceOnUse"><stop stop-color="#fff"/><stop offset=".06" stop-color="#FAFAFA"/><stop offset=".14" stop-color="#ECEBEC"/><stop offset=".22" stop-color="#D5D3D5"/><stop offset=".3" stop-color="#B5B2B5"/><stop offset=".31" stop-color="#B2AFB2"/><stop offset=".32" stop-color="#B7B4B7"/><stop offset=".33" stop-color="#C4C1C4"/><stop offset=".34" stop-color="#D2D0D2"/><stop offset=".46" stop-color="#DEDDDE"/><stop offset=".79" stop-color="#F6F6F6"/><stop offset="1" stop-color="#fff"/></linearGradient><linearGradient id="aW" x1="70.477" y1="521.847" x2="70.477" y2="515.203" gradientUnits="userSpaceOnUse"><stop stop-color="#A2A2A2"/><stop offset=".04" stop-color="#B8B8B8"/><stop offset=".11" stop-color="#D2D2D2"/><stop offset=".17" stop-color="#E6E6E6"/><stop offset=".25" stop-color="#F4F4F4"/><stop offset=".35" stop-color="#FCFCFC"/><stop offset=".51" stop-color="#fff"/></linearGradient><linearGradient id="aX" x1="90.829" y1="521.841" x2="90.829" y2="515.197" gradientUnits="userSpaceOnUse"><stop stop-color="#A2A2A2"/><stop offset=".04" stop-color="#B8B8B8"/><stop offset=".11" stop-color="#D2D2D2"/><stop offset=".17" stop-color="#E6E6E6"/><stop offset=".25" stop-color="#F4F4F4"/><stop offset=".35" stop-color="#FCFCFC"/><stop offset=".51" stop-color="#fff"/></linearGradient><linearGradient id="aY" x1="70.477" y1="515.287" x2="70.477" y2="522.268" gradientUnits="userSpaceOnUse"><stop stop-color="#F2B89A"/><stop offset=".21" stop-color="#CCA591"/><stop offset=".43" stop-color="#AB958A"/><stop offset=".64" stop-color="#938984"/><stop offset=".83" stop-color="#858281"/><stop offset="1" stop-color="gray"/></linearGradient><radialGradient id="l" cx="0" cy="0" r="1" gradientUnits="userSpaceOnUse" gradientTransform="matrix(2.12362 -.08494 .48904 12.22612 -34.357 582.741)"><stop stop-color="#F2F4F3"/><stop offset=".22" stop-color="#CACCCB"/><stop offset=".43" stop-color="#AAABAA"/><stop offset=".64" stop-color="#939393"/><stop offset=".84" stop-color="#858585"/><stop offset="1" stop-color="gray"/></radialGradient><radialGradient id="L" cx="0" cy="0" r="1" gradientUnits="userSpaceOnUse" gradientTransform="matrix(3.2195 -1.18419 .26625 .72385 108.171 488.028)"><stop stop-color="#F2F4F3"/><stop offset=".22" stop-color="#CACCCB"/><stop offset=".43" stop-color="#AAABAA"/><stop offset=".64" stop-color="#939393"/><stop offset=".84" stop-color="#858585"/><stop offset="1" stop-color="gray"/></radialGradient><radialGradient id="A" cx="0" cy="0" r="1" gradientUnits="userSpaceOnUse" gradientTransform="matrix(1.78384 .08494 -.841 17.66089 148.55 390.153)"><stop stop-color="#F2F4F3"/><stop offset=".22" stop-color="#CACCCB"/><stop offset=".43" stop-color="#AAABAA"/><stop offset=".64" stop-color="#939393"/><stop offset=".84" stop-color="#858585"/><stop offset="1" stop-color="gray"/></radialGradient><radialGradient id="B" cx="0" cy="0" r="1" gradientUnits="userSpaceOnUse" gradientTransform="matrix(1.78384 0 0 17.6685 233.77 443.191)"><stop stop-color="#F2F4F3"/><stop offset=".22" stop-color="#CACCCB"/><stop offset=".43" stop-color="#AAABAA"/><stop offset=".64" stop-color="#939393"/><stop offset=".84" stop-color="#858585"/><stop offset="1" stop-color="gray"/></radialGradient><radialGradient id="aa" cx="0" cy="0" r="1" gradientUnits="userSpaceOnUse" gradientTransform="matrix(.42557 0 0 58.3024 1264.04 567.361)"><stop stop-color="#F2F4F3"/><stop offset=".22" stop-color="#CACCCB"/><stop offset=".43" stop-color="#AAABAA"/><stop offset=".64" stop-color="#939393"/><stop offset=".84" stop-color="#858585"/><stop offset="1" stop-color="gray"/></radialGradient><radialGradient id="h" cx="0" cy="0" r="1" gradientUnits="userSpaceOnUse" gradientTransform="matrix(2.12362 .08494 -.48904 12.22612 39.182 378.639)"><stop stop-color="#F2F4F3"/><stop offset=".22" stop-color="#CACCCB"/><stop offset=".43" stop-color="#AAABAA"/><stop offset=".64" stop-color="#939393"/><stop offset=".84" stop-color="#858585"/><stop offset="1" stop-color="gray"/></radialGradient><radialGradient id="ad" cx="0" cy="0" r="1" gradientUnits="userSpaceOnUse" gradientTransform="matrix(.42557 0 0 37.6625 1276.19 539.275)"><stop stop-color="#F2F4F3"/><stop offset=".22" stop-color="#CACCCB"/><stop offset=".43" stop-color="#AAABAA"/><stop offset=".64" stop-color="#939393"/><stop offset=".84" stop-color="#858585"/><stop offset="1" stop-color="gray"/></radialGradient><radialGradient id="ae" cx="0" cy="0" r="1" gradientUnits="userSpaceOnUse" gradientTransform="matrix(.42557 0 0 37.6625 1280.24 539.275)"><stop stop-color="#F2F4F3"/><stop offset=".22" stop-color="#CACCCB"/><stop offset=".43" stop-color="#AAABAA"/><stop offset=".64" stop-color="#939393"/><stop offset=".84" stop-color="#858585"/><stop offset="1" stop-color="gray"/></radialGradient><radialGradient id="af" cx="0" cy="0" r="1" gradientUnits="userSpaceOnUse" gradientTransform="matrix(.42557 0 0 37.6625 1284.3 539.275)"><stop stop-color="#F2F4F3"/><stop offset=".22" stop-color="#CACCCB"/><stop offset=".43" stop-color="#AAABAA"/><stop offset=".64" stop-color="#939393"/><stop offset=".84" stop-color="#858585"/><stop offset="1" stop-color="gray"/></radialGradient><radialGradient id="ag" cx="0" cy="0" r="1" gradientUnits="userSpaceOnUse" gradientTransform="matrix(.42557 0 0 37.6625 1288.43 539.275)"><stop stop-color="#F2F4F3"/><stop offset=".22" stop-color="#CACCCB"/><stop offset=".43" stop-color="#AAABAA"/><stop offset=".64" stop-color="#939393"/><stop offset=".84" stop-color="#858585"/><stop offset="1" stop-color="gray"/></radialGradient><radialGradient id="ah" cx="0" cy="0" r="1" gradientUnits="userSpaceOnUse" gradientTransform="matrix(.42557 0 0 37.6625 1292.39 539.275)"><stop stop-color="#F2F4F3"/><stop offset=".22" stop-color="#CACCCB"/><stop offset=".43" stop-color="#AAABAA"/><stop offset=".64" stop-color="#939393"/><stop offset=".84" stop-color="#858585"/><stop offset="1" stop-color="gray"/></radialGradient><radialGradient id="ai" cx="0" cy="0" r="1" gradientUnits="userSpaceOnUse" gradientTransform="matrix(.42557 0 0 37.6625 1296.45 539.275)"><stop stop-color="#F2F4F3"/><stop offset=".22" stop-color="#CACCCB"/><stop offset=".43" stop-color="#AAABAA"/><stop offset=".64" stop-color="#939393"/><stop offset=".84" stop-color="#858585"/><stop offset="1" stop-color="gray"/></radialGradient><radialGradient id="aj" cx="0" cy="0" r="1" gradientUnits="userSpaceOnUse" gradientTransform="matrix(.42557 0 0 58.3024 1300.5 567.361)"><stop stop-color="#F2F4F3"/><stop offset=".22" stop-color="#CACCCB"/><stop offset=".43" stop-color="#AAABAA"/><stop offset=".64" stop-color="#939393"/><stop offset=".84" stop-color="#858585"/><stop offset="1" stop-color="gray"/></radialGradient><radialGradient id="ak" cx="0" cy="0" r="1" gradientUnits="userSpaceOnUse" gradientTransform="matrix(.42557 0 0 58.3024 1304.55 567.361)"><stop stop-color="#F2F4F3"/><stop offset=".22" stop-color="#CACCCB"/><stop offset=".43" stop-color="#AAABAA"/><stop offset=".64" stop-color="#939393"/><stop offset=".84" stop-color="#858585"/><stop offset="1" stop-color="gray"/></radialGradient><radialGradient id="al" cx="0" cy="0" r="1" gradientUnits="userSpaceOnUse" gradientTransform="translate(80.654 493.001) scale(2.1867)"><stop offset=".48" stop-color="#010101"/><stop offset=".53" stop-color="#101010"/><stop offset=".59" stop-color="#1B1B1B"/><stop offset=".68" stop-color="#222"/><stop offset=".93" stop-color="#242424"/><stop offset="1" stop-color="#030303"/></radialGradient><radialGradient id="E" cx="0" cy="0" r="1" gradientUnits="userSpaceOnUse" gradientTransform="matrix(5.02941 .98402 -5.34735 27.3309 90.354 480.628)"><stop stop-color="#F2F4F3"/><stop offset=".22" stop-color="#CACCCB"/><stop offset=".43" stop-color="#AAABAA"/><stop offset=".64" stop-color="#939393"/><stop offset=".84" stop-color="#858585"/><stop offset="1" stop-color="gray"/></radialGradient><radialGradient id="F" cx="0" cy="0" r="1" gradientUnits="userSpaceOnUse" gradientTransform="rotate(88.264 -199.531 275.641) scale(12.4118 55.4016)"><stop stop-color="#F2F4F3"/><stop offset=".22" stop-color="#CACCCB"/><stop offset=".43" stop-color="#AAABAA"/><stop offset=".64" stop-color="#939393"/><stop offset=".84" stop-color="#858585"/><stop offset="1" stop-color="gray"/></radialGradient><radialGradient id="R" cx="0" cy="0" r="1" gradientUnits="userSpaceOnUse" gradientTransform="rotate(-159.806 75.41 197.946) scale(3.43037 .77126)"><stop stop-color="#F2F4F3"/><stop offset=".22" stop-color="#CACCCB"/><stop offset=".43" stop-color="#AAABAA"/><stop offset=".64" stop-color="#939393"/><stop offset=".84" stop-color="#858585"/><stop offset="1" stop-color="gray"/></radialGradient><radialGradient id="G" cx="0" cy="0" r="1" gradientUnits="userSpaceOnUse" gradientTransform="matrix(25.31689 -4.21948 3.95208 23.71252 63.477 449.05)"><stop stop-color="#F2F4F3"/><stop offset=".22" stop-color="#CACCCB"/><stop offset=".43" stop-color="#AAABAA"/><stop offset=".64" stop-color="#939393"/><stop offset=".84" stop-color="#858585"/><stop offset="1" stop-color="gray"/></radialGradient><radialGradient id="aq" cx="0" cy="0" r="1" gradientUnits="userSpaceOnUse" gradientTransform="rotate(19.29 -1018.019 551.534) scale(3.52861 15.9809)"><stop stop-color="#F2F4F3"/><stop offset=".22" stop-color="#CACCCB"/><stop offset=".43" stop-color="#AAABAA"/><stop offset=".64" stop-color="#939393"/><stop offset=".84" stop-color="#858585"/><stop offset="1" stop-color="gray"/></radialGradient><radialGradient id="ar" cx="0" cy="0" r="1" gradientUnits="userSpaceOnUse" gradientTransform="rotate(-15.018 1691.275 -184.871) scale(3.5345 15.9563)"><stop stop-color="#F2F4F3"/><stop offset=".22" stop-color="#CACCCB"/><stop offset=".43" stop-color="#AAABAA"/><stop offset=".64" stop-color="#939393"/><stop offset=".84" stop-color="#858585"/><stop offset="1" stop-color="gray"/></radialGradient><radialGradient id="as" cx="0" cy="0" r="1" gradientUnits="userSpaceOnUse" gradientTransform="matrix(.38351 0 0 53.5001 -878.524 530.796)"><stop stop-color="#B2B2B2"/><stop offset=".26" stop-color="#C7C7C7"/><stop offset="1" stop-color="#fff"/></radialGradient><radialGradient id="at" cx="0" cy="0" r="1" gradientUnits="userSpaceOnUse" gradientTransform="matrix(.70647 0 0 51.8752 96.826 537.116)"><stop stop-color="#F2F4F3"/><stop offset=".22" stop-color="#CACCCB"/><stop offset=".43" stop-color="#AAABAA"/><stop offset=".64" stop-color="#939393"/><stop offset=".84" stop-color="#858585"/><stop offset="1" stop-color="gray"/></radialGradient><radialGradient id="au" cx="0" cy="0" r="1" gradientUnits="userSpaceOnUse" gradientTransform="matrix(-.70647 0 0 -51.8752 212.231 537.116)"><stop stop-color="#F2F4F3"/><stop offset=".22" stop-color="#CACCCB"/><stop offset=".43" stop-color="#AAABAA"/><stop offset=".64" stop-color="#939393"/><stop offset=".84" stop-color="#858585"/><stop offset="1" stop-color="gray"/></radialGradient><radialGradient id="ac" cx="0" cy="0" r="1" gradientUnits="userSpaceOnUse" gradientTransform="matrix(.42557 0 0 37.6625 1272.14 539.275)"><stop stop-color="#F2F4F3"/><stop offset=".22" stop-color="#CACCCB"/><stop offset=".43" stop-color="#AAABAA"/><stop offset=".64" stop-color="#939393"/><stop offset=".84" stop-color="#858585"/><stop offset="1" stop-color="gray"/></radialGradient><radialGradient id="s" cx="0" cy="0" r="1" gradientUnits="userSpaceOnUse" gradientTransform="matrix(2.12362 -.08494 .48904 12.22612 -34.325 685.429)"><stop stop-color="#F2F4F3"/><stop offset=".22" stop-color="#CACCCB"/><stop offset=".43" stop-color="#AAABAA"/><stop offset=".64" stop-color="#939393"/><stop offset=".84" stop-color="#858585"/><stop offset="1" stop-color="gray"/></radialGradient><radialGradient id="o" cx="0" cy="0" r="1" gradientUnits="userSpaceOnUse" gradientTransform="matrix(2.12362 .08494 -.48904 12.22612 39.423 481.336)"><stop stop-color="#F2F4F3"/><stop offset=".22" stop-color="#CACCCB"/><stop offset=".43" stop-color="#AAABAA"/><stop offset=".64" stop-color="#939393"/><stop offset=".84" stop-color="#858585"/><stop offset="1" stop-color="gray"/></radialGradient><radialGradient id="ab" cx="0" cy="0" r="1" gradientUnits="userSpaceOnUse" gradientTransform="matrix(.42557 0 0 58.3024 1268.09 567.361)"><stop stop-color="#F2F4F3"/><stop offset=".22" stop-color="#CACCCB"/><stop offset=".43" stop-color="#AAABAA"/><stop offset=".64" stop-color="#939393"/><stop offset=".84" stop-color="#858585"/><stop offset="1" stop-color="gray"/></radialGradient><clipPath id="a"><path fill="#fff" d="M0 0h770v644H0z"/></clipPath><clipPath id="b"><rect x="190" width="580" height="644" rx="6" fill="#fff"/></clipPath><filter id="ba" x="65" y="43" width="399.34" height="124" filterUnits="userSpaceOnUse" color-interpolation-filters="sRGB"><feFlood flood-opacity="0" result="BackgroundImageFix"/><feColorMatrix in="SourceAlpha" values="0 0 0 0 0 0 0 0 0 0 0 0 0 0 0 0 0 0 127 0" result="hardAlpha"/><feOffset dy="14"/><feGaussianBlur stdDeviation="10"/><feComposite in2="hardAlpha" operator="out"/><feColorMatrix values="0 0 0 0 0.129412 0 0 0 0 0.164706 0 0 0 0 0.32549 0 0 0 0.1 0"/><feBlend in2="BackgroundImageFix" result="effect1_dropShadow_185_1191"/><feBlend in="SourceGraphic" in2="effect1_dropShadow_185_1191" result="shape"/></filter><filter id="c" x="32.969" y="422" width="117.023" height="213.199" filterUnits="userSpaceOnUse" color-interpolation-filters="sRGB"><feFlood flood-opacity="0" result="BackgroundImageFix"/><feColorMatrix in="SourceAlpha" values="0 0 0 0 0 0 0 0 0 0 0 0 0 0 0 0 0 0 127 0" result="hardAlpha"/><feOffset dx="12" dy="12"/><feGaussianBlur stdDeviation="6"/><feComposite in2="hardAlpha" operator="out"/><feColorMatrix values="0 0 0 0 0.129412 0 0 0 0 0.164706 0 0 0 0 0.32549 0 0 0 0.26 0"/><feBlend in2="BackgroundImageFix" result="effect1_dropShadow_185_1191"/><feBlend in="SourceGraphic" in2="effect1_dropShadow_185_1191" result="shape"/></filter></defs></svg>