<svg width="34" height="34" fill="none" xmlns="http://www.w3.org/2000/svg"><g clip-path="url(#a)"><mask id="b" style="mask-type:luminance" maskUnits="userSpaceOnUse" x="0" y="0" width="34" height="34"><path d="M0 0h34v34H0V0Z" fill="#fff"/></mask><g mask="url(#b)"><path d="M19.613 13.748a.996.996 0 1 1 .681-1.872.996.996 0 0 1-.681 1.872ZM8.382 9.658a.996.996 0 1 1 .682-1.872.996.996 0 0 1-.682 1.872Z" fill="#74B9F9"/><path d="m25.233 15.785 2.382-6.546A18.9 18.9 0 0 0 16.383 5.15C12.295 5.04 8.353 3.538 5.151.996L.996 12.294c3.203 2.542 7.211 3.977 11.299 4.089 2.105.057 4.171.466 6.118 1.195" stroke="#74B9F9" stroke-width="2" stroke-miterlimit="10" stroke-linecap="round" stroke-linejoin="round"/><path d="M16.212 11.447a1.992 1.992 0 1 1-3.744-1.363 1.992 1.992 0 0 1 3.744 1.363Z" stroke="#74B9F9" stroke-width="2" stroke-miterlimit="10" stroke-linecap="round" stroke-linejoin="round"/><path d="M14.384 26.213a.996.996 0 1 0-.682-1.872.996.996 0 0 0 .682 1.872ZM25.618 22.123a.996.996 0 1 0-.681-1.872.996.996 0 0 0 .681 1.872Z" fill="#74B9F9"/><path d="M6.387 21.705a18.9 18.9 0 0 1 11.232-4.088 18.9 18.9 0 0 0 11.232-4.088l4.155 11.232c-3.203 2.542-7.211 3.977-11.299 4.088-4.088.112-8.029 1.613-11.232 4.155L6.387 21.705Z" stroke="#74B9F9" stroke-width="2" stroke-miterlimit="10" stroke-linecap="round" stroke-linejoin="round"/><path d="M17.789 23.915a1.992 1.992 0 1 0 3.744-1.363 1.992 1.992 0 0 0-3.744 1.363Z" stroke="#74B9F9" stroke-width="2" stroke-miterlimit="10" stroke-linecap="round" stroke-linejoin="round"/></g></g><defs><clipPath id="a"><path fill="#fff" d="M0 0h34v34H0z"/></clipPath></defs></svg>