<svg width="34" height="34" fill="none" xmlns="http://www.w3.org/2000/svg"><mask id="a" style="mask-type:luminance" maskUnits="userSpaceOnUse" x="0" y="0" width="34" height="34"><path d="M33 33V1H1v32h32Z" fill="#fff" stroke="#fff" stroke-width="2"/></mask><g mask="url(#a)"><path d="M12.992 17.566V13.6c0-1.096.862-2.02 1.956-2.045h.049" stroke="#74B9F9" stroke-width="2" stroke-miterlimit="10" stroke-linecap="round" stroke-linejoin="round"/><path d="m14.388 27.367 1.315-2.321a8.919 8.919 0 0 0 1.301-4.64v-6.85c0-.554-.224-1.055-.587-1.418A1.998 1.998 0 0 0 15 11.551l1.604-8.448a1.778 1.778 0 0 0-3.35-1.1L9.755 9.31a7.863 7.863 0 0 0-.77 3.392v5.007a8.32 8.32 0 0 1-1.389 4.604l-.726 1.313M12.8 33.004l-9.905-4.93 2.562-5.148 9.904 4.93-2.562 5.148ZM19.004 11.553l.048.001c1.094.025 1.956.949 1.956 2.044v3.968" stroke="#74B9F9" stroke-width="2" stroke-miterlimit="10" stroke-linecap="round" stroke-linejoin="round"/><path d="m27.133 23.626-.726-1.313a8.321 8.321 0 0 1-1.39-4.604v-5.007a7.863 7.863 0 0 0-.77-3.392l-3.496-7.306a1.772 1.772 0 0 0-1.604-1.01 1.778 1.778 0 0 0-1.747 2.11l1.604 8.447c-.553 0-1.054.224-1.417.587A1.998 1.998 0 0 0 17 13.555v6.852a8.92 8.92 0 0 0 1.3 4.64l1.316 2.32M21.203 33.004l9.904-4.93-2.562-5.148-9.904 4.93 2.562 5.148Z" stroke="#74B9F9" stroke-width="2" stroke-miterlimit="10" stroke-linecap="round" stroke-linejoin="round"/></g></svg>