<svg width="30" height="30" fill="none" xmlns="http://www.w3.org/2000/svg"><mask id="a" style="mask-type:luminance" maskUnits="userSpaceOnUse" x="0" y="0" width="30" height="30"><path d="M0 0h30v30H0V0Z" fill="#fff"/></mask><g mask="url(#a)"><path d="M29.116 12.042a1.196 1.196 0 0 1-.313.7L15.881 26.74a1.192 1.192 0 0 1-1.117.363 1.192 1.192 0 0 1-.645-.363L1.197 12.743a1.196 1.196 0 0 1-.11-1.489l5.358-7.86c.223-.327.594-.523.99-.523h15.13c.396 0 .767.196.99.523l5.358 7.86c.162.238.229.517.203.788Z" stroke="#74B9F9" stroke-width="2" stroke-miterlimit="10" stroke-linecap="round" stroke-linejoin="round"/><path d="m14.999 27.102-6.253-15.06L13.18 2.87M15 27.102l6.253-15.06-4.434-9.172M.883 12.043h28.231" stroke="#74B9F9" stroke-width="2" stroke-miterlimit="10" stroke-linecap="round" stroke-linejoin="round"/></g></svg>