<svg width="30" height="30" fill="none" xmlns="http://www.w3.org/2000/svg"><mask id="a" style="mask-type:luminance" maskUnits="userSpaceOnUse" x="0" y="0" width="30" height="30"><path d="M29 29V1H1v28h28Z" fill="#fff" stroke="#fff" stroke-width="2"/></mask><g mask="url(#a)"><path d="M11.465 15.5v-3.501c0-.967.76-1.782 1.726-1.804h.042" stroke="#74B9F9" stroke-width="2" stroke-miterlimit="10" stroke-linecap="round" stroke-linejoin="round"/><path d="m12.695 24.148 1.16-2.048a7.87 7.87 0 0 0 1.148-4.093V11.96c0-.488-.198-.93-.518-1.25a1.764 1.764 0 0 0-1.25-.518l1.415-7.454a1.569 1.569 0 0 0-2.956-.97L8.608 8.216a6.938 6.938 0 0 0-.679 2.993v4.418a7.342 7.342 0 0 1-1.226 4.062l-.64 1.158M11.294 29.121l-8.74-4.35 2.261-4.542 8.74 4.35-2.26 4.542ZM16.77 10.194l.042.001c.966.022 1.726.837 1.726 1.804V15.5" stroke="#74B9F9" stroke-width="2" stroke-miterlimit="10" stroke-linecap="round" stroke-linejoin="round"/><path d="m23.94 20.847-.64-1.158a7.342 7.342 0 0 1-1.226-4.062v-4.418a6.937 6.937 0 0 0-.679-2.993L18.31 1.769a1.564 1.564 0 0 0-1.415-.892 1.57 1.57 0 0 0-1.542 1.862l1.415 7.454c-.488 0-.93.198-1.25.518-.32.32-.518.762-.518 1.25v6.046a7.87 7.87 0 0 0 1.148 4.093l1.16 2.048M18.71 29.121l8.74-4.35-2.261-4.542-8.74 4.35 2.26 4.542Z" stroke="#74B9F9" stroke-width="2" stroke-miterlimit="10" stroke-linecap="round" stroke-linejoin="round"/></g></svg>