<svg width="30" height="30" fill="none" xmlns="http://www.w3.org/2000/svg"><mask id="a" style="mask-type:luminance" maskUnits="userSpaceOnUse" x="0" y="0" width="30" height="30"><path d="M29 29V1H1v28h28Z" fill="#fff" stroke="#fff" stroke-width="2"/></mask><g mask="url(#a)"><path d="M14.987 3.346h.055c.207-.58 1.084-2.451 3.021-2.467 1.673-.014 2.996 1.477 3.064 3.149.105 2.564-2.457 4.265-6.14 7.456-3.683-3.191-6.245-4.892-6.14-7.456.068-1.672 1.45-3.163 3.122-3.149 1.938.016 2.756 1.887 2.963 2.467h.055ZM15 27.363v-6.361m0 0c0-.933-.37-1.827-1.03-2.486l-4.817-4.759a1.757 1.757 0 1 0-2.486 2.486l3.001 3-4.759-4.758a1.757 1.757 0 0 1-.514-1.243V7.969a1.758 1.758 0 0 0-3.516 0v7.815c0 .637.173 1.262.5 1.809l6.909 7.119c.328.546.501 1.172.501 1.809v2.6H15v-8.12ZM15 27.363v-6.361m0 0c0-.933.37-1.827 1.03-2.486l4.817-4.759a1.757 1.757 0 1 1 2.486 2.486l-3.001 3 4.759-4.758c.33-.33.514-.777.514-1.243V7.969a1.758 1.758 0 0 1 3.516 0v7.815c0 .637-.173 1.262-.5 1.809l-6.909 7.119a3.515 3.515 0 0 0-.501 1.809v2.6H15v-8.12Z" stroke="#74B9F9" stroke-width="2" stroke-miterlimit="10"/></g></svg>