<svg width="30" height="30" fill="none" xmlns="http://www.w3.org/2000/svg"><g clip-path="url(#a)"><rect width="30" height="30" rx="4" fill="#fff"/><path fill-rule="evenodd" clip-rule="evenodd" d="M100 0H0v100h100V0ZM20.642 11.094c.488-.074.965-.21 1.418-.405.036-.015.051-.024.058-.02a.342.342 0 0 1-.074.269 5.6 5.6 0 0 1-1.119 1.167.987.987 0 0 1-.037.025c-.06.04-.132.088-.132.16 0 2.316-.594 4.628-2.283 6.305-2.15 2.136-5.371 2.716-8.235 1.927a7.809 7.809 0 0 1-2.087-.946c-.036-.032-.069-.068-.036-.085.033-.016.062-.02.19 0a5.582 5.582 0 0 0 2.38-.306l.111-.038c.45-.152 1.235-.416 1.441-.794l.02-.02c-.071-.015-.137-.021-.201-.027-.043-.004-.084-.008-.125-.015-.763-.221-1.804-.62-2.283-1.924-.03-.075 0-.117.078-.101.364.05.733.038 1.093-.033a1.848 1.848 0 0 1-.369-.114 2.96 2.96 0 0 1-1.826-2.36 1.923 1.923 0 0 1 0-.327c.003-.078.039-.101.104-.059.347.177.727.283 1.115.31a5.37 5.37 0 0 1-.355-.31c-.848-.805-1.177-2.436-.499-3.466.055-.079.091-.079.16 0 1.559 1.77 3.467 2.595 5.792 2.938.059.01.059 0 .059-.069-.069-.4-.059-.81.029-1.206.107-.417.301-.806.57-1.142.257-.326.576-.596.94-.795.369-.19.773-.3 1.187-.327.427-.027.854.044 1.25.206.292.13.563.305.801.518.052.048.102.1.147.154a.118.118 0 0 0 .117.03 7.178 7.178 0 0 0 1.68-.653.078.078 0 0 1 .075 0c.015.01.01.03.005.047a.095.095 0 0 0-.005.025 2.611 2.611 0 0 1-.456.844c-.134.167-.47.578-.698.617Z" fill="#3CF"/></g><defs><clipPath id="a"><rect width="30" height="30" rx="4" fill="#fff"/></clipPath></defs></svg>